<mxfile host="app.diagrams.net" modified="2022-03-07T11:27:36.500Z" agent="5.0 (Windows NT 10.0; Win64; x64) AppleWebKit/537.36 (KHTML, like Gecko) Chrome/99.0.4844.51 Safari/537.36" etag="Vc2iNJNQCmhgiraWtRQW" version="16.6.6" type="github">
  <diagram id="yZr5FJLex5QjERZpAQVO" name="第 1 页">
    <mxGraphModel dx="2249" dy="738" grid="1" gridSize="10" guides="1" tooltips="1" connect="1" arrows="1" fold="1" page="1" pageScale="1" pageWidth="827" pageHeight="1169" math="0" shadow="0">
      <root>
        <mxCell id="0" />
        <mxCell id="1" parent="0" />
        <mxCell id="k-cX6Q8qo_v45ZxIV_hi-1" value="Kafka" style="shape=image;imageAspect=0;aspect=fixed;verticalLabelPosition=bottom;verticalAlign=top;shadow=1;sketch=0;strokeColor=#FFFFFF;image=data:image/png,iVBORw0KGgoAAAANSUhEUgAAALAAAAEeCAMAAAAdCG9GAAAAkFBMVEX///8jHyAAAAAgHB0dGBkbFhcIAAARCgxMSkofGhsXEhMUDhDv7u5RTk8GAADq6eoMAAWqqan09PTZ2dmfnp7j4+OAf392dXWYl5czMDHr6+spJSY6NzizsrLR0dHAv79DQEFYVleKiYlvbW6+vb1kYmPJycl8enuvrq6Qjo9gXl6dnJxAPT4tKSqmpaY1MjMbeUWzAAARP0lEQVR4nOVdaXfiuhIcJC/YBmLMmmEJYCDATcj//3fPLEkIqpZa3sicV1/unXMiu5ClVqur1frzh4nBS394WLw3GpPpcjSe9bjtHoJklnpC+KEjGxmkE/rZP9v9waN5EVgvRSc8U/0BxxfP/eTR5FT0Q+EqZK8IYjH6Zd3cF57at7eIRNp6NMlvbIOOnu6F8vjRPD+RisBI94TO868YFz03YtHNEIj+o9n++dMV5tHwDbF5NN+VsKCbwV881sKNLPk2GuH7Ixnb82003MnjGNuOh2sfTx/Ft5uLb2aRl4/h28vJN7MV+4cQjnjLBWS8fQDfDXu9UCH9+vm+5B4QJ0Sj2gm79AKXecBnxMA7/oSoeysy9ggmgSfa45feYNDbHtMO6SM7b/XyTYgBIcXz7nZd2B4oyuKlVsLjGLLw3fX9Xw7a+LcF9S4fMRydAk6lHfbnxLxGvjPYa6KL/3oQOeCvwzo9zTZiIJTh8ImWi9YYUZ8T9Bd1sNjRDZ7QqPA0DUpGF9g0X7sUbMFPdOvzgQ6qqQqkvskrWMhFPWwzgO4ymdUEDIraXCDgV5oXrrGvjqK6AhWzjtpZM1MjsDa6dRm2ldpZjOG4Ce8byUn1XC+vVuYcZxFA36V6rme8KctAfDS3GqhjQjxVT/YE8GbOfAfNanKKwZs5Ub5nxbDVZdcAYU7sV3VAHkiY48f8KsJ/Gc2av4kwZ/b46hiuyYdvqG8mXeFvgKWONVdLgDoYo5W51Tzn0C8BI8VVlM/mVnt1Qfeq53pGX90yMz7uRFkfnWYNZE8A24doaGoERoS5UUloIQfeNBzb6i6lY/RJy4K6yBqje2hTV5eRgA6xyaYG6m+UjZrowvHYkJFuUKBgMscWlgV10co2PJptHVRv6oxVoTHRiEgrtUd8g/pGBNw9NE6aIZ5FKfzruFbdeQmjvoEAW6X5BH2OHOtyMu8OD9NICNF5b47Gaysbg6bdmcXznRvU2xDiuW835eb7qRBx5F6sTeCEvhDeaM3/0WAduHayu/+aTIPjQiib+xwdPNiHwlcDoDIUYsN1qWlVUWa//fmQjjaLrEtQWPaMmK8tzg8CWaULQtEgotL3UF22W9JuGIYk2fMfcOn22nTy0xlBJ+LFbRlpPjTYm6NXA93zrxcfnB1PEWXRT3l0tzG2MPcIBMfxG1JSnfn5zKDakJ+eEz8zokgLygKYwHPTkoVNjzgM4S+BWguDL0tTfAos+wOtWvfPtMqo+nowyw4NhM7K4AebTeWAmWL347EsH2KQpy8YuYcD32x17h7K6t+Wl2u0MUZF65lneK4ImJr4u/V4uDJm2PeNhT2OAp6LtbHqhRtITpSvy1iMrk9jqjDH/GuSw0kSeGqyZojPicCdgLcHTHgsr2oWGj2LkLV6nrGwncg/wAweHH2dhctczpQtwODchstzIu+STuTTk9JZcN/zRrmtoeisOBHvK0jnN/N9X2fzwdNT72XcFDjHpMGL/V7Q27+L+zjhyZ1PrdJ7/iM8iFC83jqRrWODmDlWeuXT8Sdj+d63jT5gGhIk/e+I/Re/i/8ogUKnbUn3T1cVTDO4HloRkiUc7lb5T09FCT+juRtOiS0rDNFYxZSKEoab25COgvXR30ev9RFegb2tdoOCw3b1EQZhWcNS0AYzz0IALEgYrcoGnxFlVVpEcgsSBvlagUmh6oM2H3URHqnf12xVwdLID4QVJPyuvFs6xkYg/4lv2AoSVsejz9lZKq08tkBVjDBKs2H0lapq8TPMihEG4hjHpA4V4x2yl45ihNcK4YCTer5T7ITDTokrRli1aiEnbKh+mID93oKEFdmd9W1VASNY1EP4qBBmCeiqxyRrIgyGBOeEitrDkp3ZUIywmu7IyopW56pzqIewOntkzGimLnUuM8SvpMdbEgbuOyf2pGaM8921ux4O7LJkQOoIJwsELOiM7NXsdbPh9L5tIGTa5YusquPFGMRAHmJ48IPxhxDoTKAMPREOmVsAoGGbc3ZzNEq6U6StfpOORLTi9DPwFI07SjDwpd4D+TsU5oC59MXS7HjlSQ1Sczr1GeN/R4J52NIVCyNlQNgQ3UNnf3WHcFakXg/giKW2uxKYJODpbBQMJtO2cO1ZBvddoXn7mgqW0UJOCx3jJFMOk0MOcSpuUOMiJZ9GMm41UKC4Q4yIrZdLu5VYAJxLzccivsvcg4Ftwkbsc+mg5we21V244WneGxj8K9yGcEkPBaST0L17/dPUJIQ7SiGbY0R8EjjlkmleKe2M4OdmuMsRlkPR/Frkk+0rWfcGrjTJJG/qwRXyRhIl4tIqHE+IxSZNl4HQ2H4U9WkFhZSpy3M/Gb/YWPKG44ah5tQ6Ft+TSXG+Xx7VKPfchXBQHHBacDxccTpM0WsUmgvgocCaLAsUariF9FrjcrsXB5PzVUZBkKLk7oXpWsUKS/Dg+vl+SbgAE67sjwiQrYTjPN0CK/Isy5lwGjjncZhj4LkS8NVI7VcEn4q7XnQn4X1c5rl1H0eoRpNpQGQbocnrbv731LTVW++bomPHWX77ZUSZBwodGAIZaidDtqcf35nBZNa0Wcii8MbHmMf8lhLnj2iTW6T4gIJPb8POmbtLCmI7GZljhFMc1MPUN23oGE3vjfViVz1/vmNtcKU4YJlL18FUmwv6jPEomuAobDIyjigpJlSYRpOVbcrJ60UGfykQ/+GWg422lx0hyT09VSvn9CONoajkWdtTMXEG5Ex5KIhuDnzR1Ail4ODfFSzh8ZnuY2KOf2O9yYz6Tzc4iDri494o/YSqq37yZYX6koCKZ8kG4wHz8eFcUsrzvM7pv2/DmSF0TJ6EYOSUnkHOWV40N0PS26533e7sZc7JgoMnpjJEbBGPWtdZ6qE91FOol+/Z4T+CsuOsk+e2oD6oudrIN9Bp0hMqKfmjCrqXz2lVJAscbj6BJdDaIiUii3ZlyHAXV1KST0Kjxj1D8gmU5tWo5AAuscz5xIJKgZgJVumSPBBW2LprwJnoRiU1itYwiZNTReAn8LSrYNb14Yvsj9cjnaiSgnx4ttgfr8dzoQIzkUJfK0elnghXECyd8AGrCfa10oEOmO9BBrShJ5GjY7A/Ub4hXpT1JUF65e8mjIrxVUG4WRZh7JOUT3iJx7B94Rt8rL98j1itCpezY97L+uUGvOIvaV9tivBJyub7Zw/niq2zRjlRFZQP3MGghH11UFSVtJIqo9hpsf+UoCppo5IaRU/leN7EPsBj1lywAX6Ty05yvIDYylZRkQbWHLYuBfmBgxtVVMAEKWUn2BxUImdCJXXByDouNmvHFHcw4+xDDhCEbSwSdb9ENUWVyMAYe5tERaoMmYd5oeZBfzLmzjvqwHJVleIowsE7r/2IiuBzD+IMXrr74ShNR6v+usfwlvBeIUPImuQaLZZRymI+bp/C734UhmEUxdn/v7+aCilRdiKb5QzGWu1YLLTDaj70VN06iIRo678NYZQyRNSx2C+86rVFICp+YfYhcGwgM+AdMdT8VHLanQ4eay1T0jRWlKFqOXRDfV2TSKT0bmVC65la5WrGKUERReA3b9/NGmpIZ8xqujgbyDHhcs0XvEQCqb6YTnj9gdildj70KD6/MOyrAZx1k18A5zO54/OX+tz8LfL70obi0i4W7eNNuO1pPRJW9Xqc20zh/2wyPDzilrPU9JvdzERON8P9fpU2fUoj1kAsP1+MSw3SL/ahF5ZwqpYFYeRnFt7JlX8Vdi7jcWlbu0tiF6r6tDUpTi522z5zjWA8KjubT4X/PjjkeYvE4eqPnFWOACjrHNiP/Us7D4WZW6XlBnbynFLQwoVaicG2sZGtE1uLTC8W8E0x2gWPDe/kPCRFcv8RsJSc9+6/W/jLz2eVNyca5HarOOP4a+/69Ma3uNL1Yy/z4jUeAlFr2pw0qscPZ5I4QKKw9UW42R933fHrVND+HyHFbXNU37t56E9fZR6avRwp3JscqmRGVhyl4g4DmTsVPlBvqTKWmfPD+y1Jb0l8GFLtzDvBoxA80eDjQ/fxJYZt6POK7Fp2t6Dq2rUWmrJlRN5LsoArOK3wMGvZ3cKPyYgyeUaC8BFOWCLGuuyLWUzmNyLo69pRp1B0EnwTLJV6xWTPP4wRioMh1AnzZ/VRfnQwSZ9kkOxNN6RfEImDOVkBlUXSZ6sgz8YobnXfyVDHFa4QnJPYYHsgTZoj+CqMGgbzoU8egjjFlDY88QbkvcSm3oKXV3BeNh8vhDo4so3oZPjCFWZB9of53aheFFcWmO/u0rz88dYm10TtLEbNEXRbDV+NuxOb7ERvcNskJ1VSLfLg8+8duPuodrk8OW/2UVMwQn5MvxBh1UiwVHO12o7F5YKFCKs6KUtpVX+nw5e2ChFWpX6Wblmkzk8xwg+opPR/1sOljeGgpjEM6q1xNMDHWYmcdlhdm+uywyDthZO3pZYdqWulQ76EedaBRK0O35coRli9M5XhrYFsTou85mKE1fqKDc/0dVHek0U+QzHCIAImTfcEgg62qZpWjDDaPRhukkOphjanLIoRRoPY4BKrd2rapeYXJPwfihnoNjyo2IXVzXcFCcMERNkhGW9QHMcqSasgYXwHF3mqtw3jTlbJf0UJY+ESl4uaO1DSsUuvLLQJPYE42xtP7qfeE5WbYJEF93c2Un5t3/IwDSVRSTE53nzqlw0lPrpcXzg5LkRHeYgbC2dlxXlKqUoyFpPRf7v17Lhq2msc9+ilAtcSO4spC4s0Y51uKUPfE5040ihlhtjhFYOlXh12xIRPWXuTnAnG2OEJycisHUjxxh4YhkioFpxM0BmvLKPDvlWmgJjNuUiOuvYRPG3C7ORcVX5OcMxbwEHDYsQBgY7ohHxZJIx7nGwFUV0VyVssck08s0WbWctegnm+Nk+JNPOGNY9E3mGGDLBmqAGj7km+DCvBqeOdgV3k5wLHPB7oy00NjJnuKjMr4QL/wzjfEl3FYT1jZsUEfvlDyflsSDTlMmZ6yS0qw+AOvsfogtzGPYO74BHOnM3IrLKGghOTLXSJHPNmyGvH6CmbBewLmhp3x4liz4t9XT1Nm63TUZJj2fFEylvu6dS1UIjm8Libdfcbn7632K4+wzYFFdBP5c/fjtwtGJUNH4n0xnz39h71PW3LEGxXb6eaflHoum4YZW68CNMd/2wxscQF4vX+Ux8J31NbSJxAb90fjjaHQ/o63lkpwsQdZw3/HXUbkWldQR0XGtjDJk9iwL+2uM6qOOD5enpDgc8pVnMmDQMRiDWLI/SSLEsaFQGyafrFCy2LldR7wkDn1AwrAVhnbMqIFQSobm9SIuDFc/YVYfIBxHBlaGoEoiMxt5BdUYAhHBudGdDFrCuEygC6D8687qgJUxWUT8JQrTDn5LeqYNdmidW+4shM6Aqh0qsRYahGgrUGAMI1mQnwZo4jowpq1ZxwV5Hz26ojKUdJmFzIl4UBClQ8kPA/18O/ewyrEf1fbiXKs8NVlGwF+OdWutJ8Cf6dv8Xwz3lr4N3SNTUCu5Ta/GEk/P3qHUdJe7oa9/n/3K75n4tL/HuRH4IB8Y13OLZWUTUiDFxa0X/+rdFLm/hwB8eHbSvLFUWD0OjuI/AxVUCjPiN8gVbjaK+Os5PGEWk0jhwB+GJYaPKEziqS56MLJr86uKYd/jdq0+lKQxEl1KnmeggDqHJvnA6uaavxEwnrrC3kW35dfRaqzpcoH/lKj3g1emn3wF6CgW/NS9xP2GcpUepjXXixzVur1UdDGDgWKXFSc/NybbCo1OPLmj0eArw72TLfs644hBFJyskf/qgpVslCr61PMQtEUMXVR0XQ24iYMBgyElPri0ZqQKs/FZ7iAzu+8Ie/Y64BDLppdK0I64ahfyoJ2x7/pqGL0JrP+qvhKH1djXfbWnfGP/A/hfYIwAMwkj0AAAAASUVORK5CYII=;fontSize=12;" parent="1" vertex="1">
          <mxGeometry x="-20" y="356.54" width="49.23" height="80" as="geometry" />
        </mxCell>
        <mxCell id="k-cX6Q8qo_v45ZxIV_hi-6" value="&lt;font style=&quot;font-size: 18px&quot;&gt;埋点2.0逻辑架构图&lt;/font&gt;" style="text;html=1;align=center;verticalAlign=middle;resizable=0;points=[];autosize=1;strokeColor=none;fillColor=none;" parent="1" vertex="1">
          <mxGeometry x="-320" y="230" width="170" height="20" as="geometry" />
        </mxCell>
        <mxCell id="k-cX6Q8qo_v45ZxIV_hi-8" value="加工Hudi表" style="shape=image;imageAspect=0;aspect=fixed;verticalLabelPosition=bottom;verticalAlign=top;shadow=1;sketch=1;fontSize=12;strokeColor=#FFFFFF;image=https://eng.uber.com/wp-content/uploads/2019/04/Facebook-1.png;" parent="1" vertex="1">
          <mxGeometry x="500" y="328.75" width="100" height="52.5" as="geometry" />
        </mxCell>
        <mxCell id="k-cX6Q8qo_v45ZxIV_hi-10" value="" style="endArrow=classic;html=1;rounded=0;fontSize=16;strokeColor=#000000;strokeWidth=3;exitX=1;exitY=0.5;exitDx=0;exitDy=0;sketch=1;entryX=0;entryY=0.5;entryDx=0;entryDy=0;" parent="1" source="k-cX6Q8qo_v45ZxIV_hi-33" target="k-cX6Q8qo_v45ZxIV_hi-8" edge="1">
          <mxGeometry width="50" height="50" relative="1" as="geometry">
            <mxPoint x="900" y="387" as="sourcePoint" />
            <mxPoint x="700" y="397.5" as="targetPoint" />
          </mxGeometry>
        </mxCell>
        <mxCell id="k-cX6Q8qo_v45ZxIV_hi-18" value="" style="endArrow=classic;html=1;rounded=0;fontSize=16;strokeColor=#000000;strokeWidth=3;exitX=1;exitY=0.5;exitDx=0;exitDy=0;sketch=1;entryX=0;entryY=0.5;entryDx=0;entryDy=0;" parent="1" source="k-cX6Q8qo_v45ZxIV_hi-8" target="k-cX6Q8qo_v45ZxIV_hi-19" edge="1">
          <mxGeometry width="50" height="50" relative="1" as="geometry">
            <mxPoint x="1190" y="409.5" as="sourcePoint" />
            <mxPoint x="1210" y="389.5" as="targetPoint" />
          </mxGeometry>
        </mxCell>
        <mxCell id="k-cX6Q8qo_v45ZxIV_hi-19" value="" style="shape=image;imageAspect=0;aspect=fixed;verticalLabelPosition=bottom;verticalAlign=top;shadow=1;sketch=1;fontSize=13;strokeWidth=2;image=https://upload.wikimedia.org/wikipedia/commons/thumb/b/bb/Apache_Hive_logo.svg/1200px-Apache_Hive_logo.svg.png;" parent="1" vertex="1">
          <mxGeometry x="690" y="318.5" width="79.45" height="71.5" as="geometry" />
        </mxCell>
        <mxCell id="k-cX6Q8qo_v45ZxIV_hi-20" value="建立视图" style="text;html=1;align=center;verticalAlign=middle;resizable=0;points=[];autosize=1;strokeColor=none;fillColor=none;fontSize=13;" parent="1" vertex="1">
          <mxGeometry x="610" y="320" width="70" height="20" as="geometry" />
        </mxCell>
        <mxCell id="k-cX6Q8qo_v45ZxIV_hi-21" value="Nginx&#xa;&#xa;www.tieszhu.com" style="shape=image;imageAspect=0;aspect=fixed;verticalLabelPosition=bottom;verticalAlign=top;image=data:image/png,iVBORw0KGgoAAAANSUhEUgAAANEAAADyCAMAAADk3NBFAAAApVBMVEUAljn///8AlTVCqWIAkCYAjh/B4csAkzAAlDMAjyIAkSsAjyUAjRz5/fvA4Mn1+/fp6emgz63J5NHX691Trm2DwpV2vIqNjY0on02u17rw+fOTyqPU6tvO59aZzaiLi4va2tr09PQ0o1ZktXzm9OtVr29uuYMWm0Tg8OakpKSt1rk4pFmWy6VGqWQAhwBzu4e8vLyZmZnNzc2urq7FxcWqqqrh4eEeE7clAAAKIklEQVR4nOWda1ujPBCGkzQYSGlrq/Sobg/26Ha1urv//6e9YN3aAwmTkFDC+3zYy/1g4S7M48wQJghXTejaJ2BcxRDdtaNu1L4r5FgFELUiFnDGGA9Y1LJ/OPtEbc7RP3Hetn4820Q3fYqORfsdy0e0S/R8HxB0KuLdP1s9pk2iRuT56FK+FzUsHtUi0QbxFJ7PcEIDe4e1RvQwrQt4EtWnD7YObIloOAvPA+gsnMLZ0M6h7RCNOJPyJGJ8ZOXYNoiaS1EAnYXTsmnh6OaJVi8Xji289YKXlfHjmyYadlMdWyTf65oOJ8NEbZYdQKdizHBiZJSouaTZCBeiS6OJkUGi1daDBtCpSDg3mBgZI2p1A5UAOhWj5hIjU0THNYOOODOVGJkh6vRlKQ9MwfTRyLmYIHqeaQbQqYhnJDEyQBRRVccWyUhilJtowPIF0Kk4yp0Y5SR6fAkM8iQKtjlbRrmIhmYC6FR+8JqrY5SHaBSYCqBTMfp0FSJozaAj2r8pnOhuC64ZdEQC7cRIj6ilVjPoKK4z9MJJi6gNKLrzi+vVGRpEnb5OzaAjrQasMlFKm9SedMJJkagRhbYD6FRMuQGrRrQh9hxbJNUGrAqRvE1qT/UXlQYsnCizTWpPSg1YMNHIWM2gI4U6A0jUFD5nKErgBiyI6K5WoGOLRIIaqAELIBp2C3ZskfwQ0oDNJmobLVLzCZIYZRF1tNqk9pSdGMmJVvcWitR8It69PJxkRI0oR5vUnlggTYwkRBu/PAF0Kk42GkSPBtqk9lTvCxuwAiJDbVJ7It5MUGekE1035YGJ0fTEKI1ocIWaQUecpCVGl0RxynPtUwUrqF02YM+JWotSOrZIfrA47xidET05EECnumjAnhDdlCzlgYkubwREqyK7PCZFguPE6EDUsN8mtSff6zbOicpUM+jou87YE92VOuWBqd6/+yZqlzzlgYl47X9EUXjtkzGkMNoTDaoCFCMNEqKh25ZwKjaMibpVIuJdjBoupgli0QZqVoyoiSLXUlO5WIRm7uY+afJnaJvrjyvxGfON/nkm+T6PbFFN+/cJr/Pp/HVx3+fUUFnFA1RbzKa8rv1xpKZPRJejQ0n8PJgxmvtScfTzqyroLHS/In0idv50tLXJuyiAjo5apau5Xu6sTVSfpTRqN7nuPX72sHXk6XyKLhGNLnmS66T5xSYKLvrzTzo9KU0iNksFivVT64uNFaS03hYal1yTiIifDWz0EvnU76ilkXHqEVHZkomNVv+Spjaxn9SR9Ii4BChZGan8gaLbWCOL1iISR9Fec/VvVnTV58opmhZR5nvHL8oRfWl0e6nfdlpENGupxBCpfqYnsBr1UkePKHNV7J2qh3uCD7opCxFuKnp4+YnwSC15cIAIz5Ri2gUiPFUxXieIWiqG5wQRvlM4GzeIVAzPESKFDM8VIryAGp4zROAMzx0iqOG5Q4RXsFByiAg3QUmrS0Swjo5TRCDDc4sIYniOEQEMzzEivMq871wjwjdZGZ5zRPgpw8PdI8oyvLISyVbKb6WGV1airYSosZQdp6xEv9KfKu31LDu5shJ5nqx/3JGkQ6UlQqHs5aC2GKm8RIjLXpp+FRpeiYnIUmZ4NZHhlZgIMS3DKzMRol0J0kpwhqUmQnLDS8/wyk2EPKnhpWZ4JSeSG1437STLTiQ3vLQMr+xEcsPDKYZXeiK54T1f/qEtP1GG4V24gwNE8gxvc47kApGa4TlBpGR4ThAhVpMQNZYnD57dIEL8VYL0fHKRHCFCgczwHo8zPFeIkCfrgx0bnjNEiMrGXUTfp+sOkdzw7g+x5A6R3PDwwfAcIpIb3pAR94hQIJsk+hg4SIRCgOG5RQQxPMeIyFI2RvRzLbVjRIi9SIhw33ePCPGFhCgxPOeI5Ib34DlIJM/wBqGDRML3CD4V/XKQiCCZ4Ym6YWUmkmd4ItpSE8kNz0kiFPysGhEKlXdeKDsR4qo7UpWeSG54LhJlZHguEqka3rXfeoMsG1YzPBeIkKdieE4QyTM8J4lUDM8NIhXDc4QI8YzXuN0jQgF06L0zROAMz4G/sIfPgG2t5RAR0PDcuesQ8vtVI4IZnlNEqA4wPLeIPoc2VosIhZmGVxSR4Lsdqg6hISRri4+CiLigxAG+KXqkTMNrFzO5xRd0QDfqU3X4XE6kPgBRbwJSmP5IX324T2x4spdHMC5oApJgYFDK0kaApCttNK667my0tIs00xteF4qRWsXNRmMpixRudHdA8IQ33rw4opR7Rd3oDqLbdBN/1ZnCqD018fyL7eSZAemnPdRszLU+Un+yJT0ett+Ico5wp8vNWWgOiF5Y5pg+6geLr+XCq5/5d0UhlL02D2t1V0/a20TkmaeKGKXL+WzK6mbGaTNaZ9tZtztPPlF/bG0t3xRf4rM8v375eSzvUGCyreCk5epNw67exPJWxYhaFZz8j4dVCqTP3Rmqt4NGlXY5SRpm+51orrbfsEmR8LATDcYPldgtaD/yvKo7OuEK7rqFq7czWqKq7V6XqGo7DOIK7gKZOHnFdupM5M5uqmlPSf4fO97iCu5KjKu3c3Siqu3ujSu4AztOEqPShRPx7uVLDuVE5UuM6FI2ygJClNQZ5XHy75ohDxEedsNyhJMfdrOWC8CIPrcwv344kaAGWrMLIsK4ia7t5HwJXGUIJLp2YsQ4dCEonAgPZ1frGJFwlhVAf8fjv6pEcWI0vU5iVH95kJ/Y5K335+1t3futShQnRleoM/j5XoYXut2jxGC7iSpRnBgV7OTMk6Y8n0A/bv/9+L5TJorrjCI7RiSYy0ZD7bUbx1cp1nqM8dubOlGcGOXdwBIsOs1KeWKN18l9d4snv5Nr1ZtoECXL3opwckjKE+tj/O/G+5FcpHctItyy34D1vS7sHZjd7RfRuDeJI+lNjyiuM7ZWwwkUQHslHLe99XqXGB0eaxPFidHSnpPTPnwq+jq5Rr3x7e36I/7f+299omQ3IDvhxCgogL709v51101+TDD+8zcPER4uLJS4fgAMoC/d7g7OEBteT8e9j/XwYroBG2xhr7186+N3nC1M4h/if9bveYkwHhh9lMaR8rvnsdu9H+A+NHKGS0XG6gyFmuFE63WSd0/ed2/YCJGpBizxMmsGkcZ/ertd7+MzvzNBhHHHQGIUTDNqBrkmk68fzBAliVG+cOJ+9psuMJkiihOjHA1YRjNrBrCMESWJkWY4kRCc8gBkkChJjHTCifYBNQNcRol0FnoAawa4DBPhoVqdAa4Z4DJNFIcTvAFLPFibVEnmieB1BrhNqiQbRHGdASjbdVOeLNkhym7AAtqkmrJEFNcZ0gZsPV/KI5M1orjOED7PyG6T5pBFItyIUp3cz26T5pFNotQGLPHuDaY8KbJLdNmANZzypMg20WmdwdNfPDUq+0S4NWIBZ4zxgI1MpzwpKoAoVucp6kZPtu+3vYohKlLVI/oPvLDD1gwexmUAAAAASUVORK5CYII=;" parent="1" vertex="1">
          <mxGeometry x="-268.57" y="360.16" width="60" height="69.46" as="geometry" />
        </mxCell>
        <mxCell id="k-cX6Q8qo_v45ZxIV_hi-23" value="" style="endArrow=classic;html=1;rounded=0;fontSize=16;strokeColor=#000000;strokeWidth=3;sketch=1;exitX=1;exitY=0.5;exitDx=0;exitDy=0;entryX=0;entryY=0.5;entryDx=0;entryDy=0;" parent="1" source="k-cX6Q8qo_v45ZxIV_hi-37" target="k-cX6Q8qo_v45ZxIV_hi-1" edge="1">
          <mxGeometry width="50" height="50" relative="1" as="geometry">
            <mxPoint x="-20" y="397.5" as="sourcePoint" />
            <mxPoint x="20" y="410" as="targetPoint" />
          </mxGeometry>
        </mxCell>
        <mxCell id="k-cX6Q8qo_v45ZxIV_hi-24" value="" style="endArrow=classic;html=1;rounded=0;fontSize=16;strokeColor=#000000;strokeWidth=3;sketch=1;exitX=1;exitY=0.5;exitDx=0;exitDy=0;entryX=0;entryY=0.5;entryDx=0;entryDy=0;" parent="1" source="k-cX6Q8qo_v45ZxIV_hi-21" target="k-cX6Q8qo_v45ZxIV_hi-37" edge="1">
          <mxGeometry width="50" height="50" relative="1" as="geometry">
            <mxPoint x="-260" y="395.75" as="sourcePoint" />
            <mxPoint x="-121.5" y="397.5" as="targetPoint" />
          </mxGeometry>
        </mxCell>
        <mxCell id="k-cX6Q8qo_v45ZxIV_hi-25" value="" style="endArrow=none;dashed=1;html=1;rounded=0;fontSize=18;strokeWidth=2;fillColor=#f8cecc;strokeColor=#b85450;" parent="1" edge="1">
          <mxGeometry width="50" height="50" relative="1" as="geometry">
            <mxPoint x="-310" y="300" as="sourcePoint" />
            <mxPoint x="-310" y="580" as="targetPoint" />
          </mxGeometry>
        </mxCell>
        <mxCell id="k-cX6Q8qo_v45ZxIV_hi-26" value="" style="verticalLabelPosition=bottom;html=1;verticalAlign=top;align=center;strokeColor=none;fillColor=#00BEF2;shape=mxgraph.azure.laptop;pointerEvents=1;" parent="1" vertex="1">
          <mxGeometry x="-425" y="429.62" width="70" height="70" as="geometry" />
        </mxCell>
        <mxCell id="k-cX6Q8qo_v45ZxIV_hi-27" value="" style="fontColor=#0066CC;verticalAlign=top;verticalLabelPosition=bottom;labelPosition=center;align=center;html=1;outlineConnect=0;fillColor=#CCCCCC;strokeColor=#6881B3;gradientColor=none;gradientDirection=north;strokeWidth=2;shape=mxgraph.networks.mobile;" parent="1" vertex="1">
          <mxGeometry x="-410" y="320" width="40" height="70" as="geometry" />
        </mxCell>
        <mxCell id="k-cX6Q8qo_v45ZxIV_hi-28" value="" style="verticalLabelPosition=bottom;html=1;verticalAlign=top;align=center;strokeColor=none;fillColor=#00BEF2;shape=mxgraph.azure.user;" parent="1" vertex="1">
          <mxGeometry x="-550" y="352.5" width="70" height="70" as="geometry" />
        </mxCell>
        <mxCell id="k-cX6Q8qo_v45ZxIV_hi-29" value="" style="endArrow=classic;html=1;rounded=0;fontSize=16;strokeColor=#000000;strokeWidth=3;sketch=1;exitX=1;exitY=0.5;exitDx=0;exitDy=0;exitPerimeter=0;entryX=0;entryY=0.5;entryDx=0;entryDy=0;" parent="1" source="k-cX6Q8qo_v45ZxIV_hi-27" target="k-cX6Q8qo_v45ZxIV_hi-21" edge="1">
          <mxGeometry width="50" height="50" relative="1" as="geometry">
            <mxPoint x="-530.0000000000001" y="352.5" as="sourcePoint" />
            <mxPoint x="-420" y="380" as="targetPoint" />
          </mxGeometry>
        </mxCell>
        <mxCell id="k-cX6Q8qo_v45ZxIV_hi-30" value="" style="endArrow=classic;html=1;rounded=0;fontSize=16;strokeColor=#000000;strokeWidth=3;sketch=1;exitX=0.92;exitY=0.5;exitDx=0;exitDy=0;exitPerimeter=0;entryX=0.003;entryY=0.574;entryDx=0;entryDy=0;entryPerimeter=0;" parent="1" source="k-cX6Q8qo_v45ZxIV_hi-26" target="k-cX6Q8qo_v45ZxIV_hi-21" edge="1">
          <mxGeometry width="50" height="50" relative="1" as="geometry">
            <mxPoint x="-540" y="370" as="sourcePoint" />
            <mxPoint x="-370" y="420" as="targetPoint" />
          </mxGeometry>
        </mxCell>
        <mxCell id="k-cX6Q8qo_v45ZxIV_hi-31" value="" style="endArrow=classic;html=1;rounded=0;fontSize=16;strokeColor=#000000;strokeWidth=3;sketch=1;entryX=0;entryY=0.5;entryDx=0;entryDy=0;entryPerimeter=0;exitX=0.87;exitY=0.65;exitDx=0;exitDy=0;exitPerimeter=0;" parent="1" source="k-cX6Q8qo_v45ZxIV_hi-28" target="k-cX6Q8qo_v45ZxIV_hi-27" edge="1">
          <mxGeometry width="50" height="50" relative="1" as="geometry">
            <mxPoint x="-640" y="410" as="sourcePoint" />
            <mxPoint x="-530" y="319.24" as="targetPoint" />
          </mxGeometry>
        </mxCell>
        <mxCell id="k-cX6Q8qo_v45ZxIV_hi-32" value="" style="endArrow=classic;html=1;rounded=0;fontSize=16;strokeColor=#000000;strokeWidth=3;sketch=1;exitX=1;exitY=1;exitDx=0;exitDy=0;exitPerimeter=0;entryX=0.08;entryY=0.5;entryDx=0;entryDy=0;entryPerimeter=0;" parent="1" source="k-cX6Q8qo_v45ZxIV_hi-28" target="k-cX6Q8qo_v45ZxIV_hi-26" edge="1">
          <mxGeometry width="50" height="50" relative="1" as="geometry">
            <mxPoint x="-631.2" y="386.72" as="sourcePoint" />
            <mxPoint x="-520" y="352.75" as="targetPoint" />
          </mxGeometry>
        </mxCell>
        <mxCell id="k-cX6Q8qo_v45ZxIV_hi-33" value="PySpark" style="shape=image;imageAspect=0;aspect=fixed;verticalLabelPosition=bottom;verticalAlign=top;image=https://upload.wikimedia.org/wikipedia/commons/thumb/f/f3/Apache_Spark_logo.svg/2560px-Apache_Spark_logo.svg.png;" parent="1" vertex="1">
          <mxGeometry x="340" y="363.5900000000001" width="100" height="51.93" as="geometry" />
        </mxCell>
        <mxCell id="k-cX6Q8qo_v45ZxIV_hi-34" value="加工Hive表" style="shape=image;imageAspect=0;aspect=fixed;verticalLabelPosition=bottom;verticalAlign=top;shadow=1;sketch=1;fontSize=13;strokeWidth=2;image=https://upload.wikimedia.org/wikipedia/commons/thumb/b/bb/Apache_Hive_logo.svg/1200px-Apache_Hive_logo.svg.png;" parent="1" vertex="1">
          <mxGeometry x="499.99999999999994" y="415.52" width="68.89" height="62" as="geometry" />
        </mxCell>
        <mxCell id="k-cX6Q8qo_v45ZxIV_hi-35" value="" style="endArrow=classic;html=1;rounded=0;fontSize=16;strokeColor=#000000;strokeWidth=3;exitX=0.997;exitY=0.613;exitDx=0;exitDy=0;sketch=1;entryX=0;entryY=0.64;entryDx=0;entryDy=0;entryPerimeter=0;exitPerimeter=0;" parent="1" source="k-cX6Q8qo_v45ZxIV_hi-33" target="k-cX6Q8qo_v45ZxIV_hi-34" edge="1">
          <mxGeometry width="50" height="50" relative="1" as="geometry">
            <mxPoint x="634.44" y="400" as="sourcePoint" />
            <mxPoint x="690.1999999999998" y="354.5" as="targetPoint" />
          </mxGeometry>
        </mxCell>
        <mxCell id="k-cX6Q8qo_v45ZxIV_hi-37" value="FileBeat" style="shape=image;verticalLabelPosition=bottom;labelBackgroundColor=default;verticalAlign=top;aspect=fixed;imageAspect=0;image=data:image/png,iVBORw0KGgoAAAANSUhEUgAAAQAAAAFBCAYAAACYdnGvAAAAAXNSR0IArs4c6QAAIABJREFUeF7svQeYZNlVJvg/GzYjTWWW96arq021NzLdau8ktZBtAVIzmpWEEBISHgmBBN8wErDsDgPIwewgxOzOMCwMy7CLEdJoEIMYlpn9doEREgNqo26Vr8rMsM/c/c4179334kXEi8zIqqjMF/1VV2XGe9ece85/zD33XAPFp6BAQYEtSwFjy868mHhBgYICKACgYIKCAluYAgUAbOHFL6ZeUKAAgIIHCgpsYQoUALCFF7+YekGBAgAKHigosIUpUADAFl78YuoFBQoAKHigoMAWpkABAFt48YupFxTIDQB/4vc++cJygH3zZd8BmA14BhB2AC8AghDwTCAwgZ4FBAbQ8cXP7UB81zSBLoBzZWDlpGF8pSB/QYGCAleWArkB4G2/+3+ytrOA7ipghQyu1QVMILRrYKYD0xJNif8z+Qcw6J/0s/hH38+jps/CMNGq6IPaMhgzZJ9MtM3kbAz+D8afoo/Je2Vg0QOmGBN/wAAM8X3UCP1kgckhAwhBXZimaieeD2PUm3idmQYzVaeMgZm8Uxg0YhoOH5Z8wJCjpL7pd/x9ao3GRp8waknOgtE0qAd6nEbEQmqOfqRfmMwyTWbCgAmLmaYBI/SZbXfhlgxWLlVRcmx24MABtjBXZXMlgEB8H/DnNeDDuwtAHsWKm/L73ABw8hOfZUFjP9qrFokeLKsJmAyBWUNoODBJ/YcBMSRC4kwpUDogKHnTAWIUVQ0p5KOey/c9jUafshGjRgRf6vsYxGLkUjKZBLl8fU/iqUHjp9+bci7qGQ47HLyI3vSTGrWEPZSDFo7MMOyeLbOdu3a0Fubnn9+2sO3fPD1jfXgSoy3amH4K5AaAo5/+beY1jqC5anPVaNrLpLEQGHXAdEFySgAQEgBEFkBSYOg9HQRiHT2YUOZGAwAJRjRMXcA0AOBUSgFC38+XY7EzAICPXwIAF3nxsxB4+Scmuhyk+L6CNrYZ5+EGq/A9H77vo9FoYKZRDxbm5y8tVGp/e9f+3f/TO7YZv3k5Zlf0cfkpkBsADn76D1m3cQzNVhmhGQLORTArRIgGQjhcAQXcXCfjNZT2M1m3yuSVAqR65Pa1DhADJr/RAKDcgqvdAuDzUAIvicyBQNo85LUo8WcGGW8w/CYs/zxs1kXJceHYFn/C9wP0ej34QQ+lsond22a71y5te/5Io/zZj12/4ycuP5sWPW4UBXIDwL5f/jxrz16D1XaZR/gM+xIFAxCixgHA0AAA5AIoB5oDgOI+BQa6MTpiambuIY6mUYYmTLoEyjjOGl+GBTDBoY0evMLLlAujxFoBQPS3bFHNWS4BBwQGWGQDsB4sswsDHizy4RiD53kctA3DRGgBTqMMv7MK49IFlFYu4uhM2btpz85TJw/s/p33Xbf4nlzjLh6aWgrkZuE9v/JHrDl/FCvdCkJYsM0WgICb/zAsYRBTOCqKAWTNWVNDeUkyUQtAdZp72gNGmcNyyTu/NT2XHj8Js/TypcBzI59+x0mu3ALRWeTRGCFg+WC0jjwWKYOpPP5Ia2rQNzzmY7MANuuhhB6csMv/7aAZ7F5wzt10bN/nP3niyLeuaSrFS1eUArklgQBgZeEwVj0CABs268CgAJNpgat/DQB4eHpCH9JExScHBZSga4+KfQYh8sIgSy433+bg5CWXTQA4X0e+fGQRWAilRcE3QIwAhunDMOnvAIbRxkw9ROfcC3BWLvnXLcz+9yfvPPnDP7J/z+/kGHHxyBRQYAwA+BxbXTiEpldFaNiw0OGMY3DtLyPMioGU389BYX1gMD4AaEG9SNWNQ+n1vj+qL0XytVoRWe+nw6lMbolKgY73M/sGZ8GSQcN4h5JxC4CQwUQYiv64J2aEMExacwbDZAiNAMG5bwALMyiDYd4C/LMvsP2N+oXrD+z9t79295F3jaJG8f2VpcAYAPDHbHX+EJp+BaFhwQT5jqMBgHYFhn1GyagxbgwgCoZxXRbHIvLSeb3vj+onTlYY9WT29xnvc/FXOyxCh0dBWOEDpAKwqmXuItjg2QOUzSCXilsC0mIQFgABAP1NsQEy+AzQ9ixhg1WroNdcAdotIPQw36igxDx0Vi5ht93tvny7/f++5Ojup9926FCR+LW2Fd/Qt9YAAGVuAZjoSQCgbJe4mSjqL4cdpbMMmMZQACBlTDsLUUAximmPQRQNBBLCnbeJNYCIJmD9QcZB/Wb0k3O8YntVoxN1oYSeFHlOAOApVipoK4cpfhYCL8wK+mNKy8+ULgKlhBBo+DDgUwISjx7UgmWUL/wd9s+Y7PpDB7528uiJt7x/f+0v8lK+eG7jKZAbAPb+8ufZCrkAfklaAJ6IAXAffTgA6AChTynelhosFNyFyA0A6ekozadU2ygAGfH+uOvRJ8BZ7Udo0W+t5HxfKGvKvujfZSHB1VIa+2Zgiv2AKEYQA4CgnXLhDMOmVMUoNmAYjsjJDMMoxYgngPFgIrl9IRzWwazbAVrn4F86j4rfCe+7+ca/fsmJ69703t1FKvi47LQRz48BAF9gqwsH0fRdDgCE9CIGMG0AoE+JmHhcABny/rgrkCnAug+vu0d5LAAdwJLbkgIEFNCpjABKCxbrMygIGNJOQF+MQLVNoELrTC24PCjIE4iZDUanQehds02ZAwIM1BRCmf5smwhdG7YN1JmHBjx0Xvg6tpet4Nr9O//v33zg+N3jkrR4frIUGAsAmvMH0QxcBAYxApl5Yr9Y/+guALGByFTP7ib6ra64UvML+UaU9ulL3EkTJNUXMamecLTe98eifzrVWIiS+IwQfil20QGHqN/s95OzVluCBihaIwCgfw3IMqCkLuU+JKM1Ajz5FiFvgY6AKQAQfzODtoFpO9gT8yIskX/TO+QqwqFDB7SjEKAKDxWvBaO1jO7FM1jEivdtLzvxpZ+644YHxiJr8fDEKJAfAD71eaYAwCcAoMVHCDMFAGmfPxkEHGCCpwAgZvF0cCtL2PVU3tT3UYBhUCBSjmfY12On/Ooklf8eq/3x31eHkeI3R7k6MZ14bE8LIGYHbdU8pAvAYwD0OwL3njxvINoUT4r/c+C3iFd4MAdmGMAMffGHhagFTbjnnsE126qd+2+94Rc+cuOeH5oYZxcN5aLAGgDAQWDYfAuIGIdOn+mNEAAkg4L6NuAIxtSy1ZSOFP7rCAEeOtWsd9Xv8gjKsPcHANLA8aTJreaWdzyD34+wLhJAKYQjUq51AOejSezakOAqC08EA2XiAJdpAQDKwkquU9oy5LEInijGjzDyUTq0axB2sGD0sGiHODZX+rtbjy+8+r2Hdhc7BrnEd/0PjQEAX2AtcgF8G75pQfmO0w8AaSLpjJoHAIa9vwYASGzjrQEAhr6vxpMFFHmYJU2PHKclI4AZHwDg+7A6XVSCLuqsi7q/igN1q3fPjUd+7SO373tHnhEXz6yPArkBYN+nvsBacxQDsOARAJiE/kzGkONB9FsAaQ06ROgiC0C8w1lqSBJLbHSOw/B5xjPI4ohGJSecRb7h80vEADK1c4YLoMgrIn3yJ21/fyQPDPVBUm9r40/0p/rW+o/yLNJARlZ/MjaUtABEl7QDYYUG3CCAG3TgequYNbtYcIH922eff+i64697536j2DYcub5rfyA/AHzyPwgLIDAFAJDfSC5eKsG0HwBSg1ORcZ2PtEfEgVYNAHSez5pnOtKe95RhJFQpgR35/ggLIufevehej/zrboCmyTOCdzEZ8uQojOlCDR2/TivZ7gALIJpBX5CYXAa1nWjCZBbMkM4a+HBYD40S0F05x88a7CoH/uPX7f3X//S2A29dO4sXbw6jwBoAwJAAIPJCxgMAzaQcAgC6z59UQhnDTQvISAHWyZERpR/5/jAAyIr6j2DAhACl0S5He2ONNz2WUSb/oOc1GqwZACgFmTIQqcAMxZFCmPAR+nS+wOX/xqVT2NG9iFfffcv/8zO3LN1SiPLkKTAGAHyRtckF4MX/TPgyRXfdAJAV4NMDUYkR6gAiNWYEAPpJw2EmfAoAMmk6jguQMtmHamy9s/R4B1gAqVf6MgsvOwBIyyU64q39nLGW/dvE0gKQxcvMMM4joW3FMOygPFPmJ0395QvYFvhwV87jpdcdPfvqu/c+8ZZa4RJMEgbGAID/yNpzB3IBgM6kyW3BDAtgrG02XSOmBGakIEyKbFkxhLwmu+7rpE3zLADI0MB9ADMK+EaB4RoBrI/e2a5GNgCI3QTS/HQOgddDpDQCg6FUddBtLvMdpkq1AmtlFaVOC25nGXsqZvdNr7jzx3/oqPMzk1rNrd7OxAFAnCOJmx0MADpjpvP1By1Llkk8SQHIDDKkfjmMZLnJKdsc5p9roBKNYKMBcL3j7webYac5RZ2C2O2hgG905ACiBkE58DBjWwjbbXjnTuFg3WSvuuPkb//EzXOv3+rCO4n5517xfZ/MZwGI07+iWVpbDgBRL2kTXjIM/17TgH18pA1zbJ9/zCBYH1VHBP3WvQpjji8KoqZcoMtmAaUnPBzExj3OrReBtYiZem34nQ4qbgU7ZuronXoOzqUX8egtx/76U4+euGHd5N/iDawDAIRgW6oSjdJpYwPAgCpBfSm7cqh9FrhiwFF+e9ZK552+bp7nfWcQZ2WNc9DYs/pKBe768gI2mqPHGX//duCo0ekAQDMNex5Yx4NRqmKp0cDyC/+AmreCQzMW7jw8//WPv+KaQ6PaLL4fTIHc3Lzvk3/C2nP70QyZDAJKAJBV91UXugVAvxPbgro5q4X/Bx1T5QZBRoRaNxSiJnUAGOafD2ODUX5y1vhjS2c0g6XcnTzFUDMbHRa1H1ZubRyAyep47eNfiwUQ2488MIBSuY5WJwCWL6FUL2HXjAv/3HMoN1/AE7cdfP6f331i3+g1KJ5YjwrEvk98ibXnCQBCeKYBXwZv6bCJftAkCwDijmMGVkUs+HdpGIr8QvoiHRwbpIGyTNG0wAxi7nUAwKiof85gWT72HAYAA1oYlUq9weNfGwCIKBLnK0YbgjaYWRITtBisoIVKsIp6cAn2+WfxyE3XnPpfXnH9znw0LJ7SKZDfAtABgEo/8UQvcdpsGAAkCwKJGABf16HVenRGzwKAYSCQnt6oKQ73YZPsMgkBHKe/NLNOov8UfaYWABgvXW4GlCFgo2e5ov4kv3qpB4M1UQ1aqPWamGkv4+Ri4+y7Xnv7PY8WNxyNhXCjpCNqLGEBcACghSAAEIkc6pO2AAoASAt8AQCjOZQsgBBOyFDxSVWYaNoufDpZaFNNMjp+3IEZejBbHexyTDQunsJ9h3ddePLuEy99tFEUGxlNY/HEGADwp9IFCOANA4AEfxv8pqBkN0KLbYwFMMrLyfI18pr/qm1NC0euyhByZ7oAeZcnx3zG1uCTsADyj39tV7tRPEMCgCfuhmzbZAVYgGWSWQAwKklHW4U2rNVL2Bm2UDr/HO49unTpDffffPejjUZxojDHMo0BAP+Jtef3oRmOAgBdoAQAJAqCJM4CrDU4lQ5K5fVqBmxD8tfTrsYA6o2V66/V48uxGOM/knf51krnyK4bf2hrfEPVGaD1oGqTfCuQ5wXaCOhcAZ8yzYeqURlg7Q7q1RJqfgu49CKc1hncd9uJF3793uv3rHEIW+q1vByEfZ8gAKAgoK9ZAHQWwE66AHpJcP2O28jgyN1lzoXQTY5RQb/1AkCO3Pz0qK/Y/nxO8k3ZYyJoGO/sxGXlZWWjxOEiBsd20Fu9CCvsYlvVRLB8Go6/ituuP/b//d69x09O2fSmbji5pbEfAAQyCwCIj34mS4Jpl1wXADB1i391DChpmem7CuQC0H2G3dVLMFkPC1UbZncV3UunMVd18MjJa/7gl28/8NjVMc8rM8oxAODPpAtAFgCDTxeEGgYslgcA9G4G/XsYAYb56cMsgNT0Ej77hA7jjFq3wgIYRaGxvlcAoHIFwk4b1XoZFvPRXbkA9FpYmq3BZh7qvUvsTXfe8OkPn9hRXFAygMr5AeDjX2bt+b1oMi8FAE4OC2CQaZ7DpM4VRNO1RApg+oJk6nv5znr3yUexbwEAoyg01vcEACoMoGpH0B0EJgtgwUfQbaNRq/Cf2aXT2GN3wnd8y8Pf/+5545+N1dEWeXgMAPhzCQA9eFYI3xLRWYu5VwAAhgW18gAAPSMthwIAripWFwAg0kvVfpLB6G4C8afk2miurvJ/b6vYCC98A7fuWuh95/03PfK6GeOLV9VkL8Ng1wEA/N5YCQDiXnn6ZMcA8lgAeVNZh+2jZyTK6ESMXADNChgFACM9kxEkLCyAibJxDAAyW1BuKvOa5ABc1+UAQLzZqLkwexdROvci3nT9NWd/4f6DSxMdzCZobIMBgLYBFZUyQED3yXMLyjgAkF6htRwnHrbKa3FhNgHXXMEpRABAm8uRzogtQr/noVyvgxkGDw66ZQZ3+Sy2XziLp19+2+c/cveuB6/g8Keu6wkCgAzLRBIvPDS6WiL+rEUAs8z9cfa1B7kEqX3/3ACkr+GwIKN8bk3tTh2fTOWAiLTJu2NlNUlZZoAXlLUC2EEHcxQc7Fxk3/3I3e99z/7yL03lhK7AoCYMAHRXXCxYHAD4fXGaFTDR8/yjKJZldcjfqWrDEz1Ou5Yag6PmUHw/jAIcAHTXTrsnhtGtUDxW5cP1e1joLeMAW27++dMP1guqCgpMEQCM2upby5JlTS8FCiMBYFSq8IigY2EBrGXhcr8TWwAqJBi/KgCA7i0M4PgBZr0mSqefwatuOPRXn3rk5I25O9nED24wAFAikB7cG6Yhs3z7vMMbJaSD4hAZRUYTi50eU7ofBSZynIk8g8IFuBxyI24oUrosyS/87kJ0eelqKwBmfA9LQRvViy/i1bde8/P/5GVH3385xjjNfeSVMOz7eHobML0LIBFYKwLIM7bpf4lFyiJHnPqZ/HbQ7oH+1LCgYLqvjF2ChAWgCpFk5fAPAijZ5qBDOYUFsKH8nzxslAYA0v4duLUKeudWUXVLWGAhGp1lAgLvvW96yck3bPGTg5cZAIbxwjABG/e9Qc8XALCh0ngFGs8uOKJyPAKYToig1UKpsYTupRZKnS4Ozs6g4bVwtNb+6v/2mhuOX4FhT02XBQAUFsDUMONaBpINABT4o+BzCMs24LfacGcX0VvuAC0P2+sz2FW2Eb7wX9k7H9z37vdee+STa+l7M7wzYQCgW6BjP1lsA+b95NnaSw83j4+e5QZofuNYAJA1l8IFyLvCG/HcQACgACBtQocBytU6OhdXgfIMTN9AuLyK3fMN4OxXcOeu5XP/7nWPLW7E2K6GNicIAGK6USYgL/2lCoKoIM0g/1///bAhjTrOOyhIN8wlGOVe5FnGUWTMG6TM01fxTD4KyGvLKU3Ysqh0iChgR0sRUHUBhlJwEY3gOTx8dOlX/uXLb92StxGP4tyI1qODgIMAQJwZGLzjqGvxUUG/SQNAPlYqnroaKSBAV+wSUIKQrGLLC4yI7xzWhuudwslZq/Nnr7m7cjXOcr1jLgBgvRQs3p9qCsS7BILVhYUqAMBmXbjBeWzvXsIbjh/50v/48oP3TPVkNmBwGwcA8pLvuCbgoK6GWQCpdxL77Fnn+cd1ATaAokWTU0WB7LsJxRAt5sFlLSx4TVwTdMP/4aGX3f2W/Vvr8tENBADtarA1uwBZZwfUkKWwD72eepRLMVW8WgxmAygw9G7C0OeFRLZZDAurF3HbYu3vP/ua40c2YBhT22QBAFO7NMXAJkGBYQDAAiosaqJhGqg3l7HPaLPvfuXJJ9663fj9SfR9NbQx/QCgU7FwAa4GnpqqMQ4HAIoPuqjYNtzmMkrnnsMbTu77u48/vO/YVE1iAwezwQCQrgeQNZMsv33QjItdgA3khU3Z9FAAoEMCoQ3LcXkxUePMM7h1Jgh/6E0veWCrVA+aIADIKOvQegDDeGyjEoFyT3FTCsBWn9QgAOB3CkDkB8AiHumgFixjqfUC7ttd+eqvPnLXlkgRzi0do/MARMBteD2AUQCwlij+sMNARRCwAIC4ZL1OCwKAkF80YtEtpPzYsB0uY3blG7iu3As/9Pgj12+FK8auAgDIw8LDrIfcU8zTUfHMVUaBoRYA9ygJBKi0UAg3aKLePIWF5ml8xz03/9mP3XjopVfZdMcebm7pWJsFkK4HsBYLIM+cCgDIQ6Wt+MxwAGDgRUN4cUED5aCHauci5roXcNvOme6/fdUd5c1Osw0EAC0PIFcvG3EcuHABNjsDj5rfsCAgqGCISTcN01XkDtwgRDXooNxbxt6agSdO7P35D9+4c1MXDcklmkTk8S2AAgBGMWfx/cZTYDgAeDCttvAAgjLs0EIp8OEEbdQdD/fsqJz6zIPHdm78KK9cDwUAXDnaFz1fBgoMzQQ0uoC5CpMx2H4dVuDCIjBgHl1IjhvcZvAnb77dvgzDvGJdTBgAprEeQO4pXrFFKDreOAoMB4AeYLQ4AFhBFWYorrnjxexND/vDc/iJB675rqd2z2zagiG5pWO0CyAW8eqqB7BxjFe0fDVQgME0AnnXIAm+SdsCgo8RYN47g9trp/7i91//+J1Xw2zWMsbLAABFPYC1LEzxzmWgAL9YhPIEaBeAyUPCMp+FhagH53H9zLmVP3/yvsZlGM0V6aIAgCtC9qLTqaFAVLVabSXHIlENL2I3nmNP33Hk/h8/dmxTXiy6cQBQ1AOYGh4vBpKHAv0AUA6XUWv/PR4/vPCXv37/S27P08rV9swGAkBRD+BqY4ZivEkKuKwJq/kMbix3O//5La/alCXDCgAouL6gwAAK2KwDo/NNHMEKPnjvbT/59JGlD282Yk0/AOgUL+oBbDb+m+r5mOjB8M5jd+88vv3A4gsfe+iWPVM94DUMboMBoKgHsIY1KV6ZEgoY8MD8ZexGCw/PuuFnXn2rNSVDm9gwJggART2Aia1K0dCUUMAHwiZw8RTunmvgA6+99TdeUzGempLBTWQYEwaAoh7ARFalaGRKKEAX4HaA1Yu4plzGdz9444vv22XsnpLBTWQYVwEA5JlncRw4D5WKZ8alQAjDDmG1V7Az8PD6Gw51f/72uU11RHiDAaCoBzAuyxXPTxMFGL9c1O61MdNZxb17G+y3HjmcXWJomoY9xlg2EACK48BjrEPx6JRSgEqHOaGPcncVu3un8Yl3vOLx+43NUza8AIApZbxiWFNAAX4wyIDNApTCDnZ0T+Gjb37pp56qGe+agtFNZAgFAEyEjEUjm5ICHABMmCyAgy6WuqfxAw+e+L/ev3/2ic0y3wkDQFEPYLMwRjEPOiQoLAATIb9IdLF3Fv/4jgP/+Z9cv+OuzUKfCQKAIElRD2CzsEYxD0UBiwVwwx7mexfxwP7GX/36g9fcuFmocxkAoKgHsFmYZWvOg7S/j1LgYdZbxt276l/7rceuvWaz0KIAgM2yksU8NoAClF8iASDsYba3ilsW7K//3mtuPrQBnV2RJjcOAIp6AFdkQYtOJ0kBAoBAWAChj9neCq6r4dnPven2A5Ps5Uq2tYEAUNQDuJILW/Q9CQoIAKAYgACAVRzA8je+/Lb79k6i9WloowCAaViFYgxTSgEJAAjgBgFmvSYdDX7hv7zzgU1zLHj6AUBnjaIewJQKymYdVgwAThCi4TWxtPrNb/71ex7dtVlmvMEAUNQD2CyMsjXnQdWCA54IZIcMDa+FheUXTn31vY9umtuCJggART2ArSkkm3nWBAA+TBbCCg3MeG1sb5869ZV33V8AgG/RWWkDFnNhMCqUIuuph3F1VUZ3rDC6fTUPkxSXg+ahUvHM5aQA8a4v7g5kJgeA3Z1zp//mnS/bcTlHsZF95RJNGsDom4E2CgDyTL+oB5CHSsUz41JAAgCpt9BC3W9jV+fc6b99x0sLAMhnAay3HsC4C5Z+XoBS8SkosDYKCACgj8Fs1D0CgLOnv1oAQIjRADCJegBrW7b4rQIA1kvBrf2+AgAD4ADQwe7uuTNffftd2zcLXXKrx/FdgAIANguTbN156ADgcADY1T175msFABQWwNYViq008wIAotXOZwEk6wGQ/02bAoNCdFHj3A4ZtAuwXobLbeSst6Pi/U1HgQIAxgAA8aheD0AAQP+li0k+0eEhDRUGmFEI8KaTq6tmQgUArBsAGOUByByB7HXP0vwSTPiJQqMI5F81ArPZBloAQAEAm42ni/mMQYEMAOicPfO1dxS7ABnbgCkXgDQ3+f/cBRi2HTc4QiBsg8ICGINji0cnSoF+ANi+eurM33/XS4ttwP48gDQAyJ/JAxiajDPYx4+cgyIMMFG2LhrLS4EYAIzQQd3vYHHl1Jl/eHcBADksAB0ABhFc+vhD1iNxAjjvuhXPFRSYCAV0ALBR97tYWP7GmWe++97CAhjPAhgU/pPnB4YtVqH9J8LKRSNroUA6FbiDuYsvnHnuva8oAGBtABBLs/L8k9t8g6R9ZCbBWla3eKegwAgKaIeBmIVGr4mli8+c+dr3PFYAwNoBgMx+6R70yXtWsHDwNmHBvwUFNpYC+mlAEwu9i7i2+9yZL73zVVsUABb2oBl68CwmYwDQ6gEMCwKqZYpN/mzfvgCAjWXoovXxKKAAgMEMTSx2z+Nl5XNnfuvND29BAPjEl1lrfi+azIdnMoRmwDW5BSoIEt+YHGUCKi3PdwFyAAC3BmjrMG0W0CJIm6GICI7Hv8XT66SAKgjCYDIDS93zeHKfdebTD968FQHgP7HW/D40WSgBwOd79Bac9QNAJPNpAKCSTJoLUADAOhm6eH08CsQAYDGDWwBP3zB/5mduP7wFAeCTfyoAIAB3AUKTAIAsgAkDAK1QIuZHIKDMib4vU9ZF1vKOCiCO2mYo3h8uNBtNv/FEdrJPCwAwGQMBwOGSj++8Y8+Z79tX3XoAsPeTXxIAEBrwTQOh6XFJNScKALqgZ8g2l8VxawcOCyLmKRhSvD/4POfloN9aQH8BsXGWAAAgAElEQVRSMKABQGjgcNnDBx47duYfVY2tCAB/wpoL+9EMTAQEAIYCAJtfoKw+a4oBpJWIrnSV/x91kMUQo1KN11MzsACAKwsAFETKs36jLJG1gEI/APzsa4+dedLYigDwqf/ImvMEABa3AKABACYNAH0LrjFAJi+oxR+EJMPM+FHgMUwDycDlwFTnaMNzCPcV/Q9OFSf65QGAPJbIWgCAAbYBO/Thtpu4tuLhp9948oWHDWPr3Qy051NfZM2FA2iFDniZRKMnD+vaGA8ApBE/SGYTJn4Gqkf1BfSdBX1xEwED7Ys8WkRvJ/188X62CA0SvknQbxSAqr43CACoFkWphJLfxuy5Z/DKozvw/geO/IubDOPta4GTaXwnt92051P/ga1yAChxADDR4+hsGOMAgCABN6qzAIB+xwVcLfyAvIBEkZG0wA/7Oc2UebSv3l7xfpKJJ0W/3Gw4QIbW+/6gZgUAlLuXsOfC1/Edd14b/Pitu4nhN80nN+V2f/oLbHXhIFpBCQH3+skCIB+J6BE3MzwGsBYAyKB1AQCSKJMSwCx+1kE4gu3Ug5Pqn9oxNVdf1w5Z/1bDIPdAugj8sVE7NuPKLaNtLpTb53CNfw4/+OR9z7910dw3bivT/PwYAPB5CQCVFACoW4GkcKdMdF4QKPXJtADUAvaZ+FkAoP9OMWEWw9Jz3KwYwBx5Gbh4P1u4JkU/yv+gQHJa2GX73FzM6osUEN1QpZLFJgsABgKAdVBe+SZuLvXwk9/24McedowPTLNAjzu2MQDgc2x14RBaQQ0BM2EaHWkBrBcA5KJFCJ6uIpoeYmqRI+ZQU0+7AFIzpHcT+OOK8YZpwOJ9LvwbSr/pBACL9VA2VmGc/nu89roD3mcfutkdV8Cm/fn8APDLf8RW5g+hHcwIAAABQACYkwAALdknHQTsSw1OxQgS3+taIqW19YzCaFXSjKcvV/F+QutvKP1I+w9yAZQVN0iUxnEBJLuPMhQk2DmsDbd7Cruwgrfdc9t//9EjS0enXaDHHd8YAPCHrLl4FKs9sgAs2BEAmKJsl/yMHwOQghY1kTa3RWmx+KP/kE4dLgAgSSeNVhsqwFlsNA6AxnkkSQZO7wIwGKb2LP9auA5pvuvnF+VOJPtKhA44q8XuRIk1YVz8e5xcKuEDr7//e19rGP9sXAGb9udzA8D+T36Otbcfw3K3Ah/CAuD3ppnWYADgNQHT/rr4mf+aE1x3AdK7AEnyReI9oM2kn5gGEl0YFKboPqbWl+6OyF/Hh5h11lrf+2IrJNuP5nRJmN1ZaksAIP3X/5nu+YfqFum0hUc5Jnzuuuul0YJ/r0I7Bj+lR4fRlBKi5hJgoMrKc3KQlRHfZG1w2mk8ZzAwLaZQCVewxzqPkwtm539/+KWVaRfmtYwvNwDs/qnfZeVjt+Fi1yXRh2+3wEwKwBBBh2QC6nzb56+rlYyHHi9I/3SEqAyz30bEC5SVIrchRUv9LapW9G8SmkK1wwFsbe/HIxX/Ss9KyIX4baQHU9MjfODir3tQCbJl04rLQmRYrW38fFzrmD8JKb1P90YIZaApAoNByC09I4WfJ5/xe7oB/m8R+7M9A5ZPcm0iMMD/wIpXUNxMI109En75h660JwCg5gQFAh5Q5AAgQaAeXMT8pb/Fux+7969+8PCOG9ciYNP+Tm4AOPgT/57VrrkNFzsm2gaDbzcRWD6Y4fATAeqTNsUU0AtOTmo7wbzJIQxmZgX8ac02PokjAZBCkBaTLEuD/y71IGfgtIei6/Sk0ZF4fxhUxcIp5zZknJyBBwJANm2mYv5kypOUkzCbdAEME2DAQrAw5FpcCKYAClLeASlwmjAJOL0XMLgeYAUMgWGgF5nvZMbTQtALHBHkHxtgDgcBuu1XBwCDslu48FOKO/0dYtY7j0P+M/jeJx9647dum/nN8Tlt+t/IDQBHPvI7bO747bjYDOGxAIG9Ct/y4VkOAh4IFB9avPhDvplOBGUyq99J81UH/yx1mGxxhBUwmujUHRfcDOGNR6bNYoCAJTVpsl+dsFkCqv9OtaO3kP7dAAcgEv5xQGAq5m+YMEjwuTYXN0BxqyAkEKAFojP4QuHzj2HyNQtsEyG9Z5kIWQgrFCY/s+iAmoHQoeckaIQhTNJAIYMRGGAhuQoEAKS0CARM+j9Y4MMhbAi7MODBMAIYLMCcfx4v3x40f+Oxl9RHc9XV+URuALj5Q59hi9fcitVVH0FIsLuMwKTqQCUEhLQKABISnwEAqai9bgFEhtsQK19phfWSe1wA4DyY6lQJUtZY0gCQfj/LmohoqGipNTKIJMKEHbBLN4RIV3r+JLSk8QP6wzU9AYEFk4DBoBiTJQFAEsGwxCE0MvVNkwNAzzDRMUvocnBg8BDA41ElQg6hSShCRcU8qL2QmQjhgBkuQogMVoOAx/dQck2EXgs2AlgU5WI+5r3zeOfLj375R4/ueMl6+W1a388NANbN97L67mPwWwxm0IFlXuTmEjNKCDkhBQiYMkhDhOVL0HcvgOYGSB9WiZbuBmYTjMHIkyg0itqa6d63y6gUTsp8j+JSWtvcBchChpRAKnc+AQqCP6V2S8YAhE+c+l3WSkk+j7T/EOBMkGQK5s+nL+lH2t8wLK7lufAbFv+ZnICdO3eBGeTfG1zRVOdmYZZKcKoVeLUFXKztQtOuIbSE/08WArkLnA3DEIHXRRjQKpmAU0JguvANB6EpU9htC+i24ZRdhJ1VlIwQTujh0rkzOFTy2Mff+dBdjxvGX4xiqav1+9wAMHfDTWx212EYTR+234KLCzCMHphRRkiGlBR4Mus4EPCfDVoD7ZOKAaQj2EqbDaGmAIC8nD4ARjTzP8sNyNKoWSZ2zMDJfvK8r0CBv5kWdv2shGYN9MUq1ggAfM4qrjAohpHqbNLzTwNAyASvcHOe4nahuDNCJPtKADAJABpglg04LjqlWXQWDiKcWUS10YBbqyCwDLjVMmZm6nCrdZxrdtHyQ3T8EL5pw7NL8G0XAQEA8SjZ/p0W7GoZweoyaiaDE3jorS7jzp31S194zS1zV6tw5xl3bgDYdv0NbH7HQdjNHip+C2V2jp8I7JolTlgh8ERT/W+1P6vbsjoIJIOAeUxZwRbrBIC8MYB0bCJF0ZExgEHvp4AugrSUyR/NckCsQtFLCWfexcwdA9io+StQi6wAeY08F37hDvAAHVcsFCsgrW4hNE34JuAxhl4QosssXGgzOLUG6jMNONUyyjN1/netUUcws4jO4hG0K/OAW8ZKEKJl2uhS3MqyhJlQcoDmKuyZOvxLFzHvmECriapl4LU3H//cL14/83AeQbpan8nLM9h54gRb3L4PVquLkt9BiV3ieQBETJ+bbFLwEy4ABV6kfxdRKO5SaMH+XezMrNPIWl6f8CvLW2lB3RJXQ1QjTI8jTaxBAJDn/TwxADUe5ab0WQDS1cgDnDqDRuOWA81ql4N52grICYB55p9YB27TGVzQLRJ2Ctrx4BztCJAlH1LAHz4LMb+0iI7nodXpwg9EVUrLsmU8AfCNEFSsjv4sOzWYR25Bdd8xLO7eh7BUQdO00LYctG0LXcsGcyvw2m1UZhvoLl/CNtuEvbqCA/U6+/IbbxmUoXS1ynvfuHMDwKHjx9ni0g6wngcj9GEx2jYJuV+mZwIqIMimUHZ32YksGS1Mwv+XJneW4Kd7zEOcYXA09P1BUpc17SHsFvUxDi4OEPzLOn/NCoiAl3hJW+PYTaJdAvGUAq84fyO2KHVLirYVW7aNc66LjlUCmM19/7m9B2Bu24bSnt1wFnagE1TguTV0Sg4sy8Tq889hr2Hg9SdvPPez9x5Y3DSSPmAieXicv3rs2DG2tLQE3/c5Ig/6mHqq5manXjG/6aSAjBP5loGWbfBdAysgF8KF71bRqZTRrJbRduu47pb7EdQX0JypoxP42FmtoHLuHL7/sUf/9ev2G986nROc3KjGAoDFxUUEAWX/xZ80GBQAMLnFKVpaIwWYyCHglqUMNJuhhdCw0DNttCwTK6aBZTjoufOoHziKmaNH0Ni+HXbg47rt24Jfe+NLNlXhj0GULABgjTxWvDa9FFAZw1ZogP5QHgDBAamuLqMsVgusJKyBUys+li2yBsrA0hL27t2Dd73121efvHPvHScN4yvTO8vJjGzdADCZYRStFBSYIAV4BqHYSeDBRErupZwDkyEww/gAGmycOr2C/dffgr86dwnB7BzsRh033HAC1x3e47/19U9+8f6y/dAERzZ1TRUAMHVLUgxo3RTg5yOE1qckIxL+nkXCH/ADbCYL4FKqcWjCMkrwyjM4bVXwYsBw1xOP4WKvidXVc1hamMUNx69t33X8+v/1u49fu2kKger0LQBg3dxWNDB1FOA7ImJ3ioTfo2Q/OxQX2hoenDBAxQvhUrahbaFplnCxNo/W7AK23XAdvtFeRnmhisbcDIKOj5nAxK27Dlx4zV33fOypPbt+Zurmu44BFQCwDuIVr04ZBfTMKZ5FSAeEwO+y7NkhtwAoEkAAUPbpW+Bcp4XS7r14PrRw8J57sDJbx6mgC3dhBiunvwnYLmbdOkoXmphvh3jqpfc///Ctt7/jnu2zvz9ls1/TcAoAWBPZipemkgLqEAUfnPD9xaEnxg8LURaBCXIB6K4/Bs800ZmZwTdYAGv/fuy641Y8F/aw4lpglBFI0hECVPaiFgD1Xoju89/ENYs7wsfuftmffuSee+6dSjqMMagCAMYgVvHolFMgAgCZlRqlMgvhFxmTUe0gNB0Ll2ZnsDxbh3v4AKx9u3DGJnfBAihVmG8jMhghg8OAUhCiGoRowMS85eDY7FLz1bfd/XNvPnbkw1NOmYHDKwDgal25Ytz9FNAAQNUSEH9LoefFgdRJEgPLJRMvNFyUjh9G/dgRnGI+VssleAQAVOMiNOAEgE0BQzqtHAaA34EdhqgaJncjFq0Sbjp65G9++ZVvuP5qXJICAK7GVSvGnE0BCQC09WeGgEXFg8iEl5YAbQzQseKQg4CBC2UTp3bWMH/7SWBxES+02wjrdXT5sUQTjunA9ej4ewjDMfkdOLZjwKSSZX4AKwzQWV5BOWDY35hvvvWxV//we/Yf+6WraXkKALiaVqsY63AKZACALYv8CuGnHQEDPm0NUiZgowTvxoOwrzmAVcvBxSCEVa2j3epS0gCqVgk2HXmhWsGOAWYz+IaHgPnclbBMC34Ywm+2sM1w0OiF7NGbbv3jTzz06qvmBGEBAIVQTS8FMg44DSrgwsN+KQAQwT4xPQoGeqaBrmWgR+XEHAu9HXMIbjqM7s4FrMKER/UtLRe9jg8nNFFzq3AMC37gY9XrwDM98gdgWqIQK7kT4coq5vfuQ/PFM6h4PirtNo7v2vHcP3rdU4+8rbF76jMJCwCYXvYvRqaVO0sXMFFAoBcqUQBAOlsUSxW1I0j46Ur7nmWgY5voWCZY2cXCyWuxcng7zpYttOgWMNNFGJookebnLzGYps3dhqbfplrYAgBMci1EOfJytYblZ59Deds22AjhtS6h6prYtX2+9dTtL333hw/c9ZlpXsgCAKZ5dbbq2LRCJJH/roqHpCoxi8i+Xhcx3gHgqUCBKBjaNoGOa2HVsdApO3AW5rD95utwer6M8zYVGaGSZDbCXoBqZYafIWivtkXNAdeBXXGpZCF8n9yDABajWoKielGpXEG31+G1Mi2LwSmZCMMeahdWgw/d/7pf/f6b75raLMLcAHD06FFGpwHpODB90qf+BtUBGHxjy1bl7mLeIykgqwEr4abnVQl2ntMflwCI7hBR5dHjthkpa5Q8xouHBI0qsGMBX/faMHctonZgD7yFBi7VHLRsOilI9QgthB6Da5dghCYCKeC0BaBqP1KFIqp8TZYF8TZVwuKbjCzkVchFxQJxXZkbMHSefRGvfem9X/ztV772vpHzvgIPFABwBYhedDmcAuo0n16RKBcARM2KfX8y46uhBbtcwRnm4+vdVVRPHEXp0F74lOnnWmiVHR4XIH9eHB0Wpr24O4AKlKgMAvW3KhIk7yTkfWZfnspBImRwl1fw0P5D/+333vTW66Zt7QsAmLYVKcYTafWsuxNI++uXsSRcgAQAiANBtmHDrFQ5ADzTaeLY/fegt9Dgwr/qWmi7JnyLsv5k6ToJAuK6ctL28lBRdIWbEhlVf0j+nVHHjoKQ2+fmcOHZZ1FaWcHdhw+fetU9L7vvvYdOTk1wsACAQuCmjwJaDEAfXFwOLFFRPXokYmb5PgXv6KqPi4EPr16HuWMJ22+6AZdKNlZsE17VRcdkvNBoskV1o1AMAPEdjvkBgNKNLc/HzoU5dFcuonfuLG7Zu3f1lXfd+arvO3bnF6eB8AUATMMqFGNIUEDf/VP/VoyaWZ5cva3LJmjLz8Q5MFwwgMb+/Th46y24VHLwzV4HLceE1aijywJeJ0De8CCvKaeG5K3DiYsf9OCDAo3hFoDLA5QBP4hkswDmyiqu37m38+Stt7/1g9feccWvGysAoBC+qaNAZFxr5dC5SKrgYHRVm7hYNLrbIQIAIcBNx8aLDmDt2omlw0dQ3rULzzVXYczPoufauNRt84NCpk0ugKxzyU1/JehU1VonTxoANBBIuAACtuhXDs9BYPBsqkfEUDUsNJiJI3PbvPuOnfien7r+9k9eyQUoAOBKUr/oO5MC6hQfd7/VlWxS+CmxJ474i+BbfOpPPs2F2MKy6+D89gYWrr8WpYVFNC0bp7wunIV5HvhrtpowXSr9ly5yqwGAqlKcutg2OfD+q9xpVByG5LVljAZuMDhOGbPlCmwvwA44/lO3vuxHP3j06BWrMVAAQCGEU0eBSKCldudMmgCAuBA9QxhdUy6uD6M0XwueYeNC2YFxPR30OQyUqrjQ7QG1Gi72uvzeALoUhC4aTl5om/Qn1EUl/Lej0xD7XBnLthDQ1jmhlm0DrQ62HTgAx7LQPnUaiz0WvP2+R3/sA0eOfPRKLEQBAFeC6kWfQymg/H7dvE+6ACLDLz7nL7bwfNPE6XYLXq0Ctm0B3e3zqNx0LVZcm1cEDmhbz3L4zUIkjHQRCV0XKi6vyfqom63SbkDGsxE4COuB/k+tOiUHvXaLj8+qVNBYmOe7GOK2wgAzjgX3/KXg3fc8/MM/sPfgz11u1igA4HJTvOgvNwX0WICe7aeuh+P3APM4Af3GRNeycAY+LpQclA/vx+wNx3G2avNEHxHUM/lNQqpWIA2EX2k3SP55go8abjocmQKFyEUQhUj51WZ05oAuz/F80NVGbn2G320YmOB/6Ds6trhomKg9e8r/gVe+4f3v2LXrsp4mLAAgNzsWD15uCmTJpYi1CWhQVgFl8ZHwrzgWVmdr8Jbm4R7ah/L+3Xih2+KHf1RUn99iTcLKOV8Iaxz0658hZfiJzyAAkO9nAABdf05WiuO68KiYSKMBq1JCaIlahRQcLNdK6Jw9i4VWFzfNLfpvvPXO73r7zn2/crloXQDA5aJ00c8EKSBtA1n627NEjv/FkgO2dwfmr78WwdIcnlu5BL/kIOTVfZTAq3/L3/D83UEgQOm+KuNPBwBdbPoBQF1uGgZ0eMhGqVIBHAdWqQQ4Fr/BmGoSEAC4ZQed5YuYBTDfC3Dbtp3dd9/7yKMPGMZlyRMoAGCCbFk0dbkoIISRMvK7foiWY6NZqwB7dqBy/DD8bXNYdWxc7HXASPtTdR8FAXSiR/twi0CCgzQLtG91AEi8pbcgS4fpICLEitKLDdtBqVrlwk8ViEn46WSiqFVIt5PbCIMebOaj6vmYbXXwsr1HVp6+8547H70MF5MUAHC5eHYL9jPEtY5ETkhKijgRV6a+SEThDV7Uc4UxtGtlYM9OlA7tQ7hzO0/0oSQgu1rlWjbQ7rIUAh+zfXyILXuPP3YBshdQ3T+grAhZeVBsGJgm7FIFTrUCw3UR0qEjqkdAVgXFHgggTMo1CGEYdFeBj210Y/E3z+CeIydO/cad9+zcaLYpAGCjKbyF29eDeAn9qY7vql8OBQDN9Nb8bPLp25aFi2Ub5u4d3Of3ts2hXaviXKeNECbcSpmn+fpMJOHQJw0A8biGJPkMWEP+hjamSPj5hSSUimDBqVQ5ENGWY2iZfDwBPzwkTQBZeJTsGYt2BVwbpcDHqb/7Gr7nocf+5p8fPLmhtQYLANjCAjqpqQ/S9IksvX6jOT70I62AmBlFi+J9lVUnIv0U8KMr6QPDxrJrwd8vhD9cmMV5FqJlWSjPNPjVYK1uBwFtuFGJbwkAlJjTb+pzaMgkh0gzGqT9qe6gAA6xEyFOFYrsYW7fw6zXYVdFDEBE/mkk1KYWO+Bd8FsMMDc7gwvf/AZm5+qoPv8i/tVT3/kbDxjWU5Naq3Q7awYA1ZAVBViyh1jUA9iopZuedvV9+0ipa5yVJUIqEB8d/VWFPbh1wHg1H16UxxKiSxV4GGX3eR6s2Vl0q2VcmCmjdtdJXCjZ8Kk+H930Y1ryaC9t4VH2EAmlskVU2TA1SirwqWIA/eaI8jgGQQDl9lDhEHX/oAjsiT+W48Kq14BGlVciSuw0yB0IUXZcbUOqnQ0BBPRntuvhBrjhBx9/7fc8Zhgbsj1YAMD0yNFVO5JMAU/NRmc03TJQQqby/KmIBx2jpT8EAD2LinmKM/o+leeq1XCWTPrt2/jZ/lOLVTR5Oi9t71FOf1qgY8HmpTuicwRC6yddghgodCDL3I6UgEU1B8gNUMeUKRPRcl2UqnWgWka7LPx+4RMM2D3gBoHsRZYxo4FW/AALnR6uMd3251/9uupGMEgBABtB1a3WZkpCEmyuCVz6yDzd2de2hVlsU3JeALiyDj+lzgsAMNAzhfC3bBvOrh1oVsuw9+yEvX83ng066JKJrw7xkOk9wJjPAoCsyL9yF7hcmmR5JD+qBw5aql6ArDpskvDXajz4F5QcNG0GRpcKKG0fNaVAQWtbdiRrDKEUBGh0urBfPIW33/fgf/vJ4zdMvKBIAQBbTVg3Yr4JrSpFSqvTJ4Jl/UJE2n3VpYKdvNYmHGagFBqwqA6fH1IJTvSohp9jo23ZWHUdVA8fwPw1RxHMz+LFXhsXKdOOqnRGVv0wAJDFexJDST8fWwHk0/Mo/QAA4NePSxNGWAAGanOzsMtlGLYLzzbR5CghrI3EWYKsw0URANDzjN9h6J05i+sWFzG/2mTvevzRH31LZXGiZwYKANgIgdhqba4RADxTAgBdxBMCNgw4hsnPzfhdD92QgdVrOO314M82sHjtcVh7dnIgoPRe2urryj11QfLBATsuggkBG7RIaQDotwCkOEdmvXBpDC74pXpdJPzYFtokwLYBceJIWQERUvUHHlPjs1gI2/NQ9TwsIMBhx1n9w8ffNDNJ9ioAYJLU3KptDXQBKJgniJJkNPETpcP2bMCPbGqDB+3obI4fMl7Nx5ibg719iZ/pDxbm+BHftm2JoJ9pwouces1/V+NR7abGkI5HJJdNjwOkYgQZxwbU1h9F+XnCT6UMcgPotGGP4hgEAMoF4FZAfgCwLQsVx4YdeDDbK6hcvIhvu/POL/z0oVsemBSrFQAwKUpu4XYGBgH5Wf34W/GvOBhG/1Jlv/mlHSYTJbpsE8xx0HNLKO3YhZkDB2DsXMRp30PTEsJPQUGKlXtqG4Gf2okBh/elAYD653DhV2aCCsipXQLxlmpTzUj8LBN6ymWe609bf7BsdEOqAiTzAfiU5fZjbgAwQDtsdJoQzEPYbaLWXMGxHgs/+MTrXvma8mSuJy8AYAsL7qSmHgtErGrpX+pqbnVqT5TUFkUyKDuP+/yk/g2gYxlYNgNcMgN0SzaMRhVetYY9N9yCTqWCiwh5LCB0S2CmzbffSPsGRiAEXQIAuRJRib+MAqJqzkkh1ikRAxZhi8VPEMqwnFTgcQUiqd0dG1a1ikp9hscBKHbhUZlwi8qNSyRKnDrUdgQy0FMIpTyK7FAfjN83sB0mnH94Dvcv7T31mUdeNZEswQIAJiUFW7idpI4XR3TjbTGRzKO0v0179RTkowCaFyC41MbM3By6VQenwg68BSreOY/SjgVY25dw3iyhbTt8j5+SgOhcf6RNI8debO+py0DpbwoqUp8dk4KESRckIfz9/okQPxnXsOTRXiX0Yp9fWhdk2pcdoFaFW64IgactQdrFp+08HkCUJccj/sgj/GRYqH4kolkGam0fjQttLC37ePolD/zSD1y35z3rZbsrAgDDQzX9Uxo1yFHtjXp/XCKO6i/dXu7+BzWcu4FxZzLp54UZHmt/lfkmTGHfDxDSrbqmjWq5Ctcp49KFS2gGPoLZKpzdiygd3INuo4xe3eUHeladMjyTKutJE5qu6E1EFCS0yJuAaTuRbgQmACBB7ZqhiDFoNIwAIE1X3WWIAIByEOJ8Hdrn59t69CwF9+YbsKoVflGOqCvC7yOKCJs4G5BygZR3lLW8EQDQdOWD5R5DYzXA3GqIu3Yda372gRvr613B3KyVvhlIdbyWTMA+BB4wiyy/LevRZHvxlJTnlnuSOak56fFr3JKRkpoKsecc45V5TPnOoncudypVlguMBdN2qDYG2t0uVgMf5rY5XqHXWZxDbd9uGEvb0HRNNC2GpsHQIbeBsk2jfX4FAHJVJXlUIpG6Dpx7BXSbnxFGFXiUXGYCQJpJZJk/4QKIttRWHw/q0S9LDtzFBX7Kj7IOCQDodiEdAFSacCTGPE8hHvsAAyS2AKICiAZcH2i0Gea7BhY9G09cd92/+bEb9795PWudWzbWAwBZii2vFk2BN5/r8Pb0N1SGtiDRqD4zeGAgbUe1pV5MjmbIUkVyHr/BdWnGhRN62+tZ/Im920cMcXsu5eOLXHkR6fdII1PNPhIYx0G7bKM5V0Hj0D7M7NwBr1TCC61VBGUXrFLiwcCuz6v3xdto/DivusVHvwRUkEr3/+m9gBfliAN4Oh8kqniliSGMGVgys1AAgHS9T4oAACAASURBVPT55d/m7AycmTo/3MNNfgIrMQL50dcyOo40YE8kOQCyAPi8VSDVFPkRM56BBeai1gpwwLY6//7JRyrrWcerGgCUX9lPgNiWE15YEgDS/DrI0sir6YctQBYAJPsXNWnSKariV3HVW72PvJbRehhjrHcFpyaZnkpiMQOuYaFSq6FtMJxur+Ir33gW9V07sG3/PtQP7kWwd5Hf0kM+vkf7+vIab4qgi4Mz9D9pg0eaU+Tfc4DhLrKUVnUrn5ZiL672GhADGEZIOSch1MqcIc1vAq4Ds1qFUy0jpExBEtaoNJkuUv3iFW0batQaRGs6D0ExCAIBn64kDxkqzMQMs1HuhJjvtvHA0T1/8HM33fXYWOuVgqhc7yoLgFc41T6mVmyhryFecVVD4OTOzKADWHEz6WOjmiDHQpRlI6gmhAWgfwZp7kGWxlBNPwo+M6z3/vZEz9kXXoiSUlmf4WyWa0lz2EQ52kkc0ZVU1H7X6/m42GmhV3ZgLs7CWJyFuTgHd2kRXqOGlZqLtmPxw7CkYYXGVlF3Jfw6wCiwNPjdf+rsgCgQKnIL+N/aFX7pXIRcLgCfuhR4/rfc8nNdmNUa3GqZxwJ4UFB+L2BoGD9GSJKDsOJMhEu3EIPBc8QpQwcGT5euBCZme20cKgfeHz30RjdXgxkPjWLh6JUjx46yxW2LCH0/0lj0pTniNKCoi9ZvfidqOwwZPXeBUt/HeB8TNAkIOgCka75ndzYuAOQd/xALXtMBOgDEsxXbZ4PHv35LIEnJ8ZmIFjautxcfeBHUpESdlgks0804MsjXuPYQmlUX3VoZK6B9f6qNq+Xyqwq9CasiW4U7oYGyTwqSrvdiUbFNftWXIg7tEqZ4KBMAUhgjaEEmP20hxABgNubgVitc+JVbwIVebRFOEACskKHEDxox9Bwqd85VBd/tKAcmZvw27NNfx7e/7KVf/tihu18y/vqN1sFRm4ePHWVLEgB0oTT48cvsrjmB9FQQ+dww0zrdlEoUiXqQ9pwu8PoCpI09Yo6EFaB3oCnXQUiY0L85xp+mRB+w9Cl0aQHQi2mml6WvE/CZAaZZABlDYMTKkSAImojPqDhDNCyuAE2+tRUGVGCD3iWtbXPtrYJdpBHJD6Ye2o4Bf6mByt4dcBfnsOIAK2ULnYqLHhXrsG2IWh2yUCffP0yf2FPj7OcxunuPAICnDisAUNo/BQDpt/tIHT2gUZP+SQpOLaJhoLxjJ5g8IJQw+zNdgH5uSAYIh4ssF3S1nekaCDnWCgagMxNVvwf/7LO4eX7e+5NH3rImKyC3BXDoGgEAdEjDoBJGPOJJ9daU/5PMclS6JZkLFk84y7Dt02iph/j3Em0SZ7WJ6eQBcz3zTLSXJnnKA5c/qvaiU5lyMOmf04LVx1gp/kn69ik1owX+1CgVWKlRRj9H7cYzTAe39LHF+9YqGi+2xxztuG1MzrjNND6qdoRVb8KiUtchQ6fTQdsLMbtjL1oeQ6vbRSfweQWcymyDZ8UF2+poHZjHpbK4sINq4Yk/JnziHR7QU0d5NSDUUCeznoRgBAFBYRLMVK09gXAyWJjio+jHFPerwz18JBxUAFRLQuhcF5V6XSb3xPEJfq14BKYC/HQlpJcUG0f4qUkCNhJ0on3XMejG8ggN3cCAE4aolCyUzl7Atx27+Xd/9voTTw6HlP5vxwKA7dsWKUkbRsC9nggAFNF1OkcMGBdWj3unlwc41wmNmfFMYltJ4oF4TIl7tpcd65GksxBrQvHEsJ8HDDkxr2HApkWTor4igJE99wOAHHlUSUb0kGV16WNXa6IcCH4xjTxyS5qT/Ev6qECbWq/0/FVf5FtTdR2fhegFAfzQR4dZ8J0ZmLUZOLUqzEoF1kwNbmMGpUYdzZqNU7MGP/EXqVE+cJUWK67woq2z5IQ0oUpezqfROlYxooCITif1WIKb+rm/T8GI032R8UCCXykBZSH8TkmU9xamv1AtKl6huKcfAOJOBgHPIKGlrEYRAwC6LrkjkowhUArEDki71cR2t4KTHbP1uScfr20YACgXACT8VGSRtBeZQmkLQDNRxRLJAkipBcpCHgXs+nd9x0j1fWUNAAahqx5EU5Vmstgj1rgxVKQBIQ1weYitvyM0S8yUStNwIYsAIN1/LPDyKsyoW3pf3/fWhSANAFzsZJIMCb/C4LiKjWLqWBZV+9Qhnd2nAlsdIwSd4mMUubfL8NxZWDPzqC7OwZ6tw6+4vBR3ULLQoZuwHPGuuH1HF35FB+1vjTYjaRtV+RFclgVcse0+oDVeMEhGC5UPrzMCFe1szKAyU4ftuiKZSQKAMv+FyxNz1CQBgKbohsLaoCBgJgD0Opg3bNT/4QV8+I3f+j+/fVvj+0bSTnsgtwVw5OgxtrS4CBYEvIopt7gVAGQclFB9pE24tKDpgx0FAEqABPLGgiJQOGsq6Sh6rPk0ncTBbKgLEAV44tHmDQLy+WrcSVtX6hcxAMTjTzJyHL8QDKe0nhQlmfJKIJAAEznetGWmnlE6jloXUWxw/1LcrSf2u+ldBRrUd88EunRyr2SBVV2YtTJYuY7qtn0IK3X+s1+y0XIMtIyQZ+CpGngc4LgmV0HDBMSnrIO8LKlyJGKa9DP+cAuA5w1IAIhcB50xDAPVnbv4xR5c+MNQZvvFZwMEAGgWSzoTcJAFnENKaXx0XoKXRuOnCmMLgFwAAnS6aahz6jRmz17EA/v3n/9Xr3hwW46mE0ok1/PHjhxn2xa3IQh9hPQf5w5pASiiZUXsVcBJU4XRsmSZ+LoHlT5nHkmTHndQC6CJTrQewv6IhFvWmuuzAFJjExo5CZPD2GwgAVPA0WcB8PnpGlCE0nj/Cg21nxUAqOnxnPdAuzZbDoSPlfjFtmBY4uANFcjs9jwsLm1Hz/PRaXfQ63mYnZ1D1/Ow2u2i7Xto7NiOThig5XXRpZ8X5oGSDbNaQkh57/Uy7EYN9kwVAVkA9ix6psOtgp7F0LMN/jel73DrS23EEwBo6xfTTM5/HO0vKCSTpNYGADygqW4aNiXwkYD5HlCvwmrMoFytwu9RlFKsCik8iltEFwbz+GWc6y/ongSdvnsH8+KbjEPY5ALI2ogCAARTOXz3gxKsGBzfx3zPw/ZWCz/4LU++463uXO6bhXIP5/jha9nC0jZ4zKdNHY7uPBrKzzqnljNhK8tMjBjno6SXxJvynYRuSP9OExgiirizRRzH7PfeY405CAASVoDiKU2IFLBnslgOyikyJKzKFKMLn1MJQTYAKIFWga9o3PIAjMoWTVoPxKsm/8NNSBaKjDWLLskEvIA8egumU+K36dLxVTLve5SlR3v2lTLgWphbWoRBAEC+MDftbYSOyWvc9+DAQw2h6SKkKDzV4JeVb0NGViITJbDpE4qdg+QuzVqFfzIAoNKHiX8CW0bZqb5g2eX1/JxSGcwTB5eisatMxCg5MamMqK2E8siyAHKpXCHgVCSF+DxQ1xsSr9NZBwJ+wisKhLIAlaCHbZ02XnXsmmd+4cRdB3N2kWk3Z7574tAJNr+0DT148IyAR0jp1hUdAKL9Vk1zkwugJ2KoZyIFl8UWQ8FAMI0SSmX+636Y4LO02CZ9xchvzLQyUtWbJN8mcG0tFFYAJhlK0EABgGQx+Z1eyVZZA1GsPk08Nd0UEvthgJ7vC2vNoXP0Ih2XbqcxHBu+XULXrsBzSwhdC55rYn7/bqHpq3STDWW5kSVhwy3TMVyDA0c3ICuQGJMO6VDcyRZXb/LgorRIwpBvzbXIGiDmjQCgT11kFMzUn8kwE/nXauHWbgHwwKhUIGRiE12shVkOBiAgoF2PwORHj0WP3OxNBv60kmFKGU0KAGiKND5aAw4AnPUlAJDbx0RgFkYAm3mY7Xawt9ny/+sb3kkLk+uTQ4+JdnacuJ41diyii1AUYZCEY/yeMxFAUh8VbKJfUSKQ+ii+7bcZtLHqRSS1X4uCjhoSywRPFYyJH03rQcks2hKK34hxpQkw8O3Ug32AkyWEiSUQNBPNiOyu6GctoBDHoFOlNDShF5a0dAhSeQHRuHgOiwmnXOIXZFDaquE6nLHpb8pkC5wS2hYVryzBosy2soMWAqwGPTSDHgKvB9Cev2XBKJX4bbfi0AvjCWCMEXuWYTCLb+bR7oI6iWcSABhAy2bwiCEGRfPlVt3glJTh5yEGbifpXJehUMj3F2cHqB6Zyc8dhBZQ37MTbaozKLWWGYjEmwQAKEdNCaTageJrNDkLQAEAl6/oCkOx4JQBKVwAsrQCKo2Cut/FzOlz+I6b7/rsR6+76+k8CJAbAG77sfcxnrzhlMFCEyWfzkmZHC3J//MsYf7Rh5iA0hVp3QmhksIi0TRi3JhgKo1S4W1ycfv38xODl9o1OaFB2kMBVnJPfTTB1CEUMTIlzLGFExeJ1M11IfMRF/EXOVX6knpUi2ok8TtZC8XP2StXSDvwEulELQbBn5M165VLwbW4RYk84hCLKGZBKbWGWLeMpCMSFsMUGYoiT98W23jqku7INRe0JWXB/zXIFO7z/dNrNug0pO5Y6SCfQSktpXymVufJRmFAAT0DzU4At1JDZXYGdr2CDm11quu7edwi4JmG4iNKhKm9/1iFJIPSSdwfzIMj+Y0XJBFtJ2oQyN0crmA5DwRgpody0MNOw8Dxrnn2Dx5509LI9jMU4MB3Dv7T9zO6dslzamCBjWqPUF9cdkjCT1s+ZPLRh9BJZWgJBtA/8e0pQvGpognqmUE6WNfYmjmvLW4kiCNorggqNKkU1TxQmAjaKZmO945F/yKtN3mKLxJJoUl43rqky6DMvrRrovO4JBUXUB0A9KBjhmUQW0sxCIu78WjMQsWITFxxX50Ya4oleDYgDc6XACFSZeMbfAQw8tNxPPovoVK7ny9qMTPwN0rjp8CxbwNQG7BaD/UKnUsJAy7EZB0ZpgvDrcF0KyhRHkPZ4YClzhPQGoXMk0eMYgBQS5HI+88CS/7g+gDAlIlGEQDIn9XODwdiI0Bo+HCYh1KriZvcBvvxOx697tFG4yujQCAP2/M2Dnz0e1mrVkXXqYKFNsqeBYdSQSmzi/aIydeTFgAHAGkBeFKTxAMRAi8SKeKoqdJKfftxgg0jD0wIWSxQgn21fO9BCiMagMrhTh4TTYpoNtlEP6pH8YwK4sXxj3iTLW4lydQk+gK5tcC43mXGIah0PkREBb3sVQoAdMxQYEdaP6HBeFqrnJM+IBW151KsrZ4EAINPWBX/kNTjz4r5c8Hn7a0XAEYJUFph6AAgavqprWjeUnMVKJVgVMqw3QrKtXkwywVsE6AdExXElEAtwpj9Y1DKS9mBA0c5SQCg8ctUYJGOL7eJyQIwfNihD6vdxH4PePP+G7/wkVvuGFk8NDcA7P/o97NVMpHowoPQ5i6AwyiLi1I75R6xBgAlnqPNooIMaQBQvDYwiJfgOk3gNQCIRDHDChiMfGoPNxbATFN3QAP9iTxKgyogGmLByK/E1qTWf1rJpk2zDEBQwp3e61eCntaT8c9JABDHXSMYjRWWOpSTHhslx8gzMoyDuwAzpYiVFRRtf0XIo3IS06oyzYJpC2ANAKAFWclN5XELNUXa5quURbZitQ7TqSFg5PKI2AZPbVcqhuYGtXuh4WC0jsIqGPpZJwBEtxdHykLbOKaYCwUIvS5KtDvjtVE2Q5TOnMfL6osrv/XEU42JWQD7PvqDbGWmgma5DA8WnMCCG1q8aCIvvWQnLQABAHFFlqSC07ZOZCJFvMwZAqRF9HULIB8A9C+QsjYiEJJoP1jva/ClSZhuEUS7G5HNrDNuvwWgzPcsy0Ofl+o5aXeI39K7sSWlQ6z8d0p2lKUUByMpCBZFl5L2vmJyOs2pNxdlfgrh5wf5ZJKSooeyAPjcEgCgLI1hbJnXBRjQhmahkfnMNaVhisA1nax0bBgzNV7C23CJl+2oiEd6F0uskYhhpV2hUbDUd4ZhjUCgAED1p34mStLcXMNAr93ETK2CTncFvt/CfBjiQJexH3n0tXe9vrb4F8OondsCIAC42KhitVICo6BPYMFmBAJiq6hrUaRSDJNymEuRCxAn4kRaSM9Ui/bxdVZX7K3rsZRAqSh+Svv3TSjDz1SCr4RHnGwatKSa6KUfUYFHafYKBhpiAShBSsw/Q4nkdAGouUQGm2xfn0os9OLLxElOLr+i6q20XyJeiYReMm4kBFxDKheGCl/GMZQYBOPdHxVTELsAMmgxXGUmA6ajdWxmkJnrZmbwbTS+e+HaCCh/oezwcws8p8GgC7nVYSRZUUglB0kPRsRqsgK2oxR/ilnWCAAix0UDd+1nmpsdhIDXQ8V10AtaaPkrmLUNLDa7+I5bXvJHHzpw8yMTAYC9H4sBgJ/ioqNJBAA89C+yv6JqSNouAN+mSI0gimry36tEnhEAoEfRtRgAf0t2kMgxiPpMM52KqqqXZAN5ACCNS/znWKvpGjC9g6H/nJj/IAjOBJskITNjaPoYBwBJ1KUW1EzuwGj9yDaUIhdAoDIsqQxWHEiVqylSq7XIOfdW1wgAeTWUGF8SrCntmjIUKJXXotTlistzHQgE6B4CxtOAZYYNz4cWf4iV1U63iNVkRQGGA0DftxMCAL1dGqdLR4bpkpR2E3bZxIX2WTRqDirLK3hkx6Gzn73rVUN3A/LSF3skADTLdDySiEYAQPXZxX4qT/bQlJ/FM5UohJIBABGnpBZNAUIk1Wmtr6afYTgn5FmfVnqKcttR81vjtNKMRc2SMuqL27lqIspezm8BJKY6ipeG2ZsjAGSYNSC6FUKjb7LGVkwyABhjqg4AkhApw0cBAG+L0lkVAIzymVPgPoxBKc5A6bmiBLe6wkseYlDgTEJSqaCstvnkYSZKiBKFPmxZj0D5VNJK4jSPg7Wjlmjk9xMCAJ0ePOnK8zE/M4MLZ06jOlPBpd5FVEo2St0O7l3YHfwfdz7O6woP+uQGgL0//cPs4mwF7VKJm07iHDft/UlZSAiUQFJuLPKFjzyYGCUGMm7ahE6CAP9WzwnSwSTSyGq6Q6anq8GMKG9EsITwxfv8kez3UTbLBcggvxbXGMk863lAG78SxgQ8alpTPBprUeHDJysS8QQaecYzWa5MX+MYWoT1nJvNxAhkU31bkKndVQKZIAhg2DY/p2+7JfS6HcEgtgVUKqjNNeQ+epywFtX2J5OVlxnXCnlq1qTKNhyGvwOXZq0CP2yteTwjpiW3vX1f3DxGEG6Z8KnSMl1HGDLsbLXxC6956iOvNpyfmBgAdN0SPE40SpWkWICUbx0AYgdSZoCpKHEeHzAeqgr4JQ5casyhm6WCx/K0nxLQtCAmBEbMLSa5BgBaMDuLUUfK7OUAgBTnZgOAXsVWpfPIGfNdvBQAcGERFlg8b90iiwGEpkjvjyP+aU9M36FR4K/aI6E3TVuc0vMDCoeLCj7VMlCrwaqUYLp2dDtPQpXw9TNhGBQEjOfL121NEp9a8Q0EgIieoUjhEkNWgyaLXDyx2GnhA/e9/C/fN7P79skAQEPkjXcJAPgfDQD6NLFS1bIom9IuY0jL5AEgZs4ol2CzAcAQ5s0CAJ0xVBwgZfQkeSf6ctB2nQaXuls2EhGzHxgmi5SObJg2P+1Ix9T5Sb75Odg89bkC03VEWXEu7EkYEr/T6hmucXyX9bU+etI5m7i2g5hhrKQWui286ciBM7944q7tEwGASwQAThkdEnxTgoCyADJ7IBWgA0DGfkrGe0ktEJ+JT5uH4vBFan92YGRMdaRbAFJz6e5An8mc3OlV6KprpjEwLW3ejNY2o9RnDm2V8HaGGORjAUCfBRObZukhD5+C+HbQNPpoS5pVmcGUXUjbDKT1HZdH9kuNGX7Qia7opsNLPd+T51F08Fc7F/S7ZAmvyyrQ43aWAagiTTl23vTDZXO9Fl4+4/b+3b3fUpoAAPwIGw4AWUsoAWCMiaZNwDgtQzSi+4cRwyY4LLnQQ7lLMbGyLXlwQZNR6VIkfOa0C5IP08agwAQfzciKHCaMio1GWgARvVJjHbM/5bIN3GNXbp2yLpVZTea+YvxKBWa5zAN9pPUp81TcKaDO8Mu05JRiEGolfZR8grTfiKYyAUDBp7RxtNOlDa+F46zD/uyVTyf9PG1so/RL9Ojen/6ABIASOmT+cwtAdwEGAYAeBBxOFSXcKWMtoR+S+lstoq7dU1MapiF1wVdgkOL++Cx4nHLMSb7eGMBGMEi6zZFp0UnrRk19TRaN7HvgbmrmfIW5qtNSoLy2nvo+uAIA0vgU5DMMOJUySiT8lQr/3Wqvw3P54ypRumCIdmNLJ70FfTkWZR19DAQABQIy4Cqfo7LhB8NVvO+xJ37pbdaOzItEJwAASa2ZnJ46BprDTtW0+zAAUO3Hfl1CP/enjQzsWkmHoqo0pdLqTysSmeBNDZbWIzDrYIfRr+b0wXVQVeA2uvHBT+QHgdha40NVA9EBQLp5UW+2DdN1USKtTzUK6Fk6mmxb/CQj/SGvVGw+xyitA3m07ZlKslnPnC/Lu6PWM5X3UfPb2OUt49tuu+MvPrz75J1ZY1wDAOgxALIAhhz1FBkh+cOqmRpLfz8ebix06wEA3d4fAAD6HoC2ADpORP/OTc3Lwi6jOxlhIWzMvNIWmvxZmfuJ5dR+UN+7Ljf367xkVwUr7VZUx5Dn81NuPJd97V0tWUsQ5SrT/JHW61/SNMvp4FsJOlgKV/DIwUPPfvrEfQfWBwAf+yC7NKsFAXkgUAOAQTfYDDhUksmdWQiXCDbJpJK0Kk40NtwFiLVd2gKIzaiouZTfOEyzJTTYaNGbjidGaRQ912kiI441vpLDZLMkmDKjTLpnlLZL+9si4m+iXK5EFXl4qTNKQY9OQVKVIlHPIPrwXcwRSmIic7tMjWRYtIP0jht2sOR0cbAXXPjSI08vrBMAfjQOAsriiAIAqGiCPGiRSPiR3Y1hAGSTMG0BrEPNahqvbw87q9mMHYVERrKe/LiOYV0m1hnZTToG0xcTSDNfn/oZ0YVOz7S5zy8KkZeFyAtnqLVyrSIBgOobin1/UX9ACL4CAAHfop5BtLbcT5SuQDS0FAiNpMoUPzDCs3ZYF/NOB3s73c5/efQfZ94inJtt937sQ9ouAN0IJP8QAIhzaSojKIm4ekLEmtTkBAGAr2UW1QbZwgMSi0YJwhTzzLCh5QGARLwgrVhHzlsTvj4AEJraqM7I1GQRFKpWq/yILj/Qwy17cT2OuJhTXAKqytFtOQAYxM5yHWzWRTVcwb6OF/z1k+/ITAkeAwB+bAAAqESAQQCgZZKN3KPP4qBR0jZqCnFRUmF2DjnYMdAKGMnZV/cDKVcgIeRDZhZp2mFLwI8LarUAVKqxekdtUEkf35ydj+4gJE1Pgk/pr3QnIS/lra6jkychk/UQyAKg9dX9//QENpEFMILr7LCHkn8JB7o+/uY178hcpVHSE3Wx92M/ngEABMEbDQBDdVYy2JOBiHqihN7S1EburwSUaAZQmiGy4LfPNRjGRbYt3MRuF/B8oFIDHAcuXbZhW7xKcZTcYduoNmZjC4DKYeulxOTlpHr/3D5MyLvMHEmn4qZOJ14JMl/uPgkAysEKDnQDvO/mh+585/79fbUBxgQAqglIeQCikqooUSw2XQa7AOu1AAoA2GjGyc6/GNxrbgAg/qA9e3LMiU/ob9OGabv8iC4V56DbhIySy2v08UrDmvZWJn3SfY9ZNu1RRuPih5hS0LUlAcBDw+xix0oL33Pyno9816FjfYeCNh8AJNS8MAniqq7iy02p/dN2e/Tz8EjRuMIfGVnpFOxBeGFZsCwbpknl48iEt2CZFhd2XkNyporQoeAelRkX5js342Xwjmfs5ebSIZnVWxQAttG5qBdP4z23vuLXv+/ItW/NcohyKRjhAqzFAtAYMILsMVa0L2invSv9xqET6DuVNSJ02tfYOGPNRcqNeShre4JPNQ6i9s8kFR/JGJlOLX7mXqsQ1Le71nfuzxAZe44Dp1SC65TgOHFaeo8xdExVr49fNskj/Xw3QFP7465YcttPNpS7HsHGLM+VaNUKPSxVTJSefxHvvunlf/zD197w0LoBoGe76NJWTG4XIB14HxCEGSRniUSijChyHsomOGjAvmRm5GuMgFFmADHP4OQz630/XSUpAZwy8z0R7ItLXQ0aZUL4eT18suhteUeevLOu2Y7ljfx9y4HpkInv8EM5YVn4+rHpFU9Uv6dAPBDTmwf7skz5kdl7so3Mi0iuEjAfg22GPWqFPuZchsaZ83i8vvsvP/7o433HgnNTRFkAYwNA4jj5EIEaOBJNYLP2kXUKjIpgCZaKEUlx+MD31gkAqrs8CzoQAPO8rHckJhVdMhrhS+wKia6SF6fm2qFNXXwpKuqYXMNb9Me2UanU+F69Ram5poFVBPwCy7SAx7PqL9mWyNRLW3BDAUBbr404j593KabkOQKAuhVg6VITD5cXv/qJx544fvktgDwAMBSGUnkAyiHMeicPnKVTk/nmcooskerLCQB5+h0GBhN9X9Irw25On6yMykio/ofRlCfpSIFX1h8dxqlWuVVAwk/bdY7jiq06uhUIDF26OUpp8kyhHAAAaxainGu25vavnhcFAIRYXG7iodLi1z/12OOH1gwAu3/qQ2xlvo7hFoAy41Q38tqaqNeMxckt/LKRYVZA2oyP2k7HIdI/6yl9aZNihHTmFd5BADDx99OAmV5y7fu04KfH0rdcBsqLosYkL01Ft+tQii4P7hkIqTAHP6JPxULptl26NEYcze37RGulf7de4V3v+1ePcOcZqRUGoAPSi8stPFRZeuZXHn+879bg3OxHAHC+XuIAEPIYgNoKJHiXSUDUWkLzZF19M6DLtPBKMzVRrjsriJhm4rS/z7/XBT59McUoUmY8P0xTjh+xiq3jYVZCjmGKRxKeu/yVNmBeQI42/kmjy0Mz9Dsu0AYMy+Z793vt6wAAHUdJREFU9OTDUwCPbs0lQVaDTNb3o5+kr86zbkVQUUTzxW6LulcnLto5bCLrFeDc7DyKmpviewKAMvMVADz7L554rO9AUG6KHfzZn2TLZAFYLnqWDd+wxJFLzwMCf0CKrTqlkUb5jPMZEcnTx4vTEpUa8lAASFWR5PKhTM4hkjpKiLM0pc4yo94fZYet6X1tUFKYRTRdmu3cfDdQr9fjKAgZaJqwktam7TjbFttytE1Hdz6qS1+55tf25OjfokiojKykAEBd0Z6MSmS4XMMsxE0hildmElYYohR62LbcwgOVxec/88rH941ivYEjPfGLP8vaS/PcAlAAQOZfmfZ5uYmXFV2nctA6Nggm1fd2labQtVeiCGhKqSUMhegUWP69fXGXn/r0b4NxHTRCANPFQBIBtNSxgv4KR0k9HbWlTSwBl6mxpA2luC6CKoIhNbA0xTn5pFaOLsWkrTbab5fXYYUsvv2GBFp96NbnDt00r+/K6eMhAOBXA4lF4hYAv1hU1QscvdMQM9x6tf+VEbJp7pWuaC+zgAPAg5Wlb/zqE4/sXTMA3PAvf4H1dmyLAMAzLHGxgh/AoHTNAVIT8uPA/X6eEhrFT0KxKIGMuaxP2cqvlCJKt6NM1XiiSZM4HqbSS0mSjBL+CDrkwNL9pz2Occe/9vfTsNlPc373nby5N7oPUJr3CRCTk/TptF2qarYQdn3ywgLgKCDXWuQKyD+5qh8Xwr8RQBIDQBsP1ra98KuPPbpnzQBw4jc+xa8Ga8HE/9/etQfJcZT3X8/Mzr7ubu9Od5JO7zvppLN8kizFsiU7fkmyESbGwSAbjIktCghOIEAiQ4VAxSHkRVXyh8EpYoyFoUgIBeKRyl9UyOOPhIQiVRQVAgEqxkVBQK87nW5fs9Od6u6ZndnZ2d2Z3dnTnba36upub6Zfv+7v119/3f19Ve6JVU8J4w6PviKGRMNI9+appiOZvr1ebx5u/ssbZp314fqYFH/4nTyGaSW+2b8t6sG5tvXLQQ3AJaG6YHTo3UTTy94IqESegHm059eDwivoXrlt4O/ghS6n4+u5Nfh/EEHEWmiHbplK+Psh/EISKEUWFOuWSjiem/zp2Vec6J4AZr/4CXZ5OIMi0R0CcIMqBgnA36FuYBB/E9v57g+7ltugc7bAysc+Tpz7cA3A+W99VmpFLo1t8Axrwfl8LaR3zz43awTdDbyAwAYIoJHw/S7homDVXY1UqnAEOAHkNCZtALnJH5+970T3uwC7vvg8uzySQRE6LM0A1XRQcdVTLhC9paNPwPnV2+CJrLZXgl21sVWXhs3ogQHZlH+Y0Hpr1PDT42EEEDZTtdIwVlP6pAnA082k5teIbzMB+JYDod2qNIB+ERgngLzOML64jOP5yf954d57uz8IJAkgK5YAkgB4xBUfATQMBP8SoDGyjP+4Z3PD26nsrnUuOJN0OkjSggDEVli78oJLgBDNZbWnb7hFk5QG0Nhr7QnAsUCKJBHIu1+SMKD5asxGjlCMLVzFvSMbvvPCifv2B6EISkdLqFwCKBFDEACPD0ghD4FIoXYFMzgjBAmgcQZpLLADAbQMHxF3cIfMSv6AAy1RaLU08G0dtL26ttLpw7o32Rk3SAAudOHXcUPIe0CFcyWaLQnAxujlK3jL/C3/8fSevbf2QACfZJdGuEdglwC4DSB4cytkTo99JrsTCbSDLs7gDpYTTmCB+S5wZDDMPtGOU9sQQAsC7V/5yQzBeASQTJkql2gIaKwmTgKOXFrEr+878o9Pz80f64EAXmAXfQTAZ39GpAbQzk7fvAvQqfKKAFojlCSBdOqHhJ/HnggSLn8As+MEkGEVSQD7j375D+b2vaZrAtj5xbNCAyjxaKwioir33iIdg3rhCZPSAOqKZMRuCy4BoiSLowGE5b/W00fBKMF3FAEkCGa0rDgBmCijcGkRT950+4eenp3//e4J4NxZoQFwG4AtCMDZBnTuicuMPV2gtUumKJWPsvXn5tON8PsJpp3+wt9rl38UbWU1p4/SFx3eaXU9Vwl8AuD2lgW/h2mQMkYvLuD8654MXZtGNgLOOARQ5hoADBDmaAFcAxC5NApDbwQQV0AjNyOAaFQBbpX/Wk/f2wATqRUBJABif7LgBJAiJWwqVthLrzodGiA0suTMnPsUu8BtAHwHQBAAP0+ugyoC6DRFtrn9cq0JpD8DT+W6OhDQmYUMK2LOSNe+dffr+K2Opk8MAnhREAC3AdA6AWhgmuYEZuiHBtCsWTS2II7Vv1WndDoL0AmitZ5+dQxWVYsuEQhuXvm+p2gVOWsJNw+Nl//hjgd6iww0cy5IAPKWiBuhpT9LAP9SoCf+6oBuKztAJ+FPqn7XuvwuB59Kdm0R6GC+StMqhksLODa1dfHzh+8d7UmCZs59mp0fSdeXABozxDFgJjy++A/WSKFptgHwA0FRBera4qpKVwisCQTqV2ecaFeB83jZWhXjxQW8dm7+pWfmbm1yByZMOFEbOn3uM+xCIS12AfgSQKfcBqCB/5IE4D/xx/0ABOhpAN0yR8VWvacQ6AoBQQBy8vUCojo5ESBvVbHJKuJtR+78+lMTO473pAFwAjhfkCcBKQ/uYDtOJVwCEOHBeWWcEN4qMktXfaoSKQQiI8D4SRw50coo6Py7jMXI5+ThSgUz1MJv3//qJx/Thz+eMAHIOwB1DcBPAK5XGFGio2QMYGSWyB2pXlQIxEZAuHkCiiWkhvKwahZyQ3nULAvVy4vYOLEB2s/PYzej7J9e+2joFmDsJUCDBkClKyhBAFqLJYAgJ8dSrwggdherBAqBcAQcmxv/Vakik8+hXCkhnc2I2b9yZRlT+VGkL1zGXROTlRfvOZFphWQsG0ATAXDVQywB/F5fXCOgU6RLAg0mgSS279TgUAgMKgKSALiab4DANFNYXloAyZgwuLPnqo1hmBhbKuHxA4cufHDXbunLPeSTMAF4JUi3cL7sm7YsFAkM6vBV7e4VAY8AMnoKhqFhafESYBARkSkNDWYFmCrbeN+JV3zjiZHC0f4QQMMSoFHCpSMgPwEEGUARQK/DQKUfVAR8GoCQMwZb4455KWBXkdNN0KUqdpM0/vSB17zxJCF/3ScC8BsB/SfiuGvoQJFNl0MUAQzq8FXt7hUBjwB0Lvd1ArCR4jsBNYpUheDWsY3Vr91+pxeOOfElAFME0GtXqvQKgfgIeEZA7pWbEwAlNgixkcvoKC8soaAP4aEbbnr5E9tmmqIB+cvr3gYgwsUECcBnA2irAajZP36nqxSDi0DYmV955kYnOuxaFTwIm5EChnMmlv7v59iSHsFbjtz9sQ8U1r+zHW49EEDgIFDAL1DzScCueGdw+1y1XCEglvftL5sZKRO1UlHEYs7mTZSWF7DJTGHrUoX++6vfzIW07ac7AqgfBfZpAG39AYjIkXFOHneqt3quEBgABORhn5ZCKrxx6YBVEQSQMTWM5k1kLl7E0Wzuwt/c9XDL7T8XPEUAAzCMVBPXKgLtCUDEYIQO3TR4vC6w0hLWmToKi4t46+E7Xnxqy94nOrU8YQLw2QCa7gJ0qop6rhBQCDQi0EED4Oa/KkMmn+Wnf0CvXEahXMK+/FDt6yffEOoAJIhwAgTgvw7cjgA6XF5Wfa8QUAgEEGhPACLStUVgprhnrirM0jImrxZxYtvMj587eqwpDFgYvAkTgLfOV/4A1GhWCPSKQHsC0KgG09ZFoPeaXsWwVcENVMfDNx0881tbdv15lNITIADlDyAK0OodhUB8BNoTgE41pGvcPyeFlaqgUC3jiDlc/uq9vxLq/is5DUD5A4jflyqFQiA2AtEIQGcUVKtgXbmEV45OfePjd9/T8ux/MjYAQQDKH0Ds/lQJFAKxEOiwBGAaNIvAurSAXZvWw/7BD+j/vu03Ou79+6vQ3RKAE4DyBxCrK9XLCoH4CAQJwG9IJ+DHgO2ihXHNwNDyMm6b3PDS544dC/X916rs3ghA+QOI36cqhUIgMgJ+AvCHs5du93RKoFdrmGA6Mr+4gA+84dE3ns5mW978S9YGwDWAJgLwilD+ACL3snpRIdACAZcA/MLv+t3UkKLACDTkFpZwy9j6y184cWI8LpS9aQDKH0BcvNX7CoEYCEhXe67nXy/2BtcAdJg2Q75cxvhiEW8/ctezZ2Z3viNG5uLVHglAXQeOC7h6XyEQHQGXAPwu99yzNjoyNYrxahV7jezy104+OBQ9X+9NRQDdoKbSKARWBAE/ATgkIPxvcg0ghaxlY3R5CacPHTn7Rzvm3txNlbonAOUPoBu8VRqFQAwEuONPLvCOuy+xHLDBnXDrjKBQsTEHY/lfXvVwV7N/b0uAYGAQ5Q8gRseqVxUCnRCQBkCdW9MJFZ63+ZFfwsN95TIYNzVc/fZ/4y9ec/rFRyamOt76a1VadxqA8gfQqffUc4VADwi4Pv8YUpTH/WOwDK4J2JjIZVH+2U+xNa3jQKpQ/NyJU/keCurSCKgIoBfMVVqFQAcEJAHolCFtc39/DGXTBkgNm0ZHsfjd72NvKo13nHjg7OOjm7ta+7sVSFgD8NrV3iWYGgEKAYWAQMA93NcgiR4BZGoMVKMocQJADRvTWWR+dh73bdi+8Nzt9431imICBKD8AfTaCSr9gCIQFiqjzgquBkDBCEUpZcNgNWQvLeFGPYffufvkmVNjk5Gu/LZDN2ECUP4ABnQoq2Z3g0CdAESc78CH7wAwGFQa/6hmI1uzsMkC7ts88/JHDx5t6+47anUSIADlDyAq2Oo9hUATAq7X31BJlEeANUqRpjUUKhZuGhqljx2+9chj+YlvJoFmdwSg/AEkgb3KY9AR8Lv8FpIYMAiI8BkMum1jrFzD+mIVr50/8G9/eMO+25KCrgcCUP4AkuoElc8AIuAIvyeAjv9/fshPrAd4mF9gZGIUV374EuZJDvds2L780aM3d33oJwzl7glA+QMYwFGrmpwMAvKQD/9IAeQiL3+8/3Kf//IQ0MjVCh7cOMse2Lbn905tHPqTZOogc+mNAJQ/gCT7QuU1MAj4o/1IYx8Xd/5bav083h+gMQarXMT8yASe2PlL//XurZPzSUOUAAHIgwreVUXJK/IcgJM9C4sMJJqadHtUfgqBPiDQyqV9t+PXLy9MCLr8AQwQECq/m9TGMCE4Mb1n+fm5/Ymq/i5IkVswfe4z7HwhgzIxQF2XYEIDCCMAruG4BCC9lzSHBlME0IeRqrJMHIH2sfm6m8SaCYCf+eenfTNEBy1XwB19rjMM3DN3Az05Pfvmh4j5YuJNizMFKwLoB/wqz9WNQDvh98+h7ebRRj9+Xns9EuCzvUHluf+RVBrlhUWYINiRzeI9J+//29cT8/X9wklpAP1CVuV7HSDQKwH4Z3oCEMe673KCuOkn1f0UtWHaFKMpE9XFq5gam8Sd26e/9czMzpv7CWSCBMBvK/n4rWkJ4H+q1P9+dqrKu1cE/LN2q/V/2CraL07utp7rzccRfh7NVzj0kO/qnBRsCwatIWPXME4IMqUqjs7O/+SF+f1be21Jp/QJEYDfZZEskokGug0Vm5u+T+RiO9VfPVcIJIxAlFm/VZHuxCY9+fAtPDHwuZFcyAMXfvdHE//LGSkUL/4CY5MjMCtFbNNTODQ+ceWv9t9WSLhhodlFlsT2NgDHa4nvJJMgACYPC0ki8O0KrETLVBkKgdgI9CL8AY2A8Nt7nAR8p/u4PDBDkgDRQLg/f8KDe5Sh2UXoC5fw4L4D5YfnDh98BSHfi139LhIoAugCNJXkekUgSQJwtABBAlwRcJYAVAdxJkZ+8Gc4mwZZvgJzYQF37Ji2Hjpw6NQb0yNfWSmEEyAAfhkoTAPgjXY1APeYc+TiVqr9qhyFgA+BpAiAG/wat/r4jM8j+fCQeny/n1AKHTZyBgG9eAF7Mnn7vQ888vZfJeT5leySyBIZugRoiAvgN3Y4Gr9rB5BGAW85sJItVGUpBCIjkCQBuKLlHe5NMYI0BVJgyBgEadsCFi9jJjdkP37nve//tdzoRyJXNaEXeyQAJy6A5moAvFYyS3EQqIkA3OeRi02omSobhUAUBJIiAEfzFdt+0v7FvfualCHLbGTAt/1qyFfL2JPJ2o/ccdcHH81OJHrGP0prPWmN8Ha4BqAIIAJ06pU1g0CCBMCXv8T54QRAbTHjm1ZJbPcZdg2HJibo63bNfeCJTTuvifD3RgAqPPiaGdaqonEQ6IUE3G1AZweME4DNADMFYlWQtStIL1/BULWMvRum7FfeMP/0uzfOfDhO7ZJ+N7Iu3qQBBOMCuHuezt5/s1NQ33aIugSUdD+q/BJFIMZBIKuGVDYnNsBrpZKohZbjnro10GIJqFGk81mkMxqsi7/A0MIl3DQ6bj186PB73jo1+2yi1e4is+4IoMktePDAg3sZyK0RZ0QnpJES/i66SSW5Ngh01gZShgmLCzogiIB/LEEEBHrKhEZt6MyGXb6KXGkZ9+3aVX1w777Tj2UnY4Xx7lf7EyIAd8/Tq6anAbiGEJcA+tUUla9CIGkE2hMA3+njBFB1CCCbyXE/PigXi6IiuWwGVq0CFJcxpeu4ZdOW4oP7D9z/aGr4n5Ouabf5JUgAjWemGwnA3QbstpoqnULgWiHQggSEI18CVq0hxwWfAZXlInQGDGWywrtPpXgVOqliDAwnZm+88Nzeg5PXqhWtyk2AAFRcgNXWqao+SSPQfCGIiIM9gE4h7vHDssVvUq1hOJ0Vjj3s5QVsGTVx59yeH/3Z9ht3JV2rJPJLiAB4VRqZsrURMIlqqzwUAiuFQOAim5AYSQg6CFI2E0KfokBOS8FeKkKrUYwPjWBHIY/juzf/65nNO29fqdrGLUcRQFzE1PsDhIDvNmu91e41XwZiU3GH37ApcpoBHr3LKNcwnh3Czi3b7Fs2Tn3ivRsKT65mwPpOAPUDkbTTvWoHpsg1agFrxGK63oyImn+nXu+2nddL+Z3wSep5tzi7t1ipVnfSyWd+HqdPXPPlt/0oRa5qY5hpyNgMRsnCejOPQzNzy7fs2fXE42nyhaSa0a98IsPTcA6gYRuQ2wDClwA+bcnxERixGZFrFcgvrnDELSdu/p2aO+jld8InqedxcXb88hPo4vION/Tx9X46a6JmUJRZEUgzGKaBwsUlpM4vYhQpzG/cijt27fvuu7ZvvDGpqvc7n8jQ9EIAvJAmm0BIy+ryFblW4QTQKXnX5TgJO+XfqdMGvfxO+CT1vGucxWE2Xd5lKVVRGCkIAlhYvAS+2DdHTLAMQ6ZaAfn+j7F/fCNunb2xfOuu3c+eMnNnkqr/SuQTeSwrAvAiN0UGrdMqJW5G1wkBrcTAdnVSUVY7nEO1Onl2hfvnz6UzWF5cFGr/UGFIXN+1ri5AqxQxblPM50fZbdN7/vOpmb199d3XL8wiD8F2BCAwrN9/llWVtwE97Fe1BlA3VHSAuV8COGDl92swB/MN1QB8Au8uUf1C4P+b2VT65zcNMGKDlpaRtaoo/uQn2LNuHCcP3Hz+6Nbppx4amuiLy+6VwKlnAmAacfwbNm4DUifKiduINUEADdNG6zVKZNCiagANo65Nt/ebgFag/XUPWRFHt+M7M+Lbja81EYAzIbl1EPO8b5ISf4vvrrdeCt2uIW/qqFWLKF84j91j4zi8dfvVI9tmPnZ6fOvvdlWxVZQo8liePvdpX2AQA7q4DKShFQH4BV5Qg7gLEPyEFB9Wo1a1DFPfohrqWtG+v4q95N+pkwek/GDXdUcAwY6INmw7EYA4yFMXeh8ZOO66+Z19XL2MTM3CxpE8do6tKx/bf+Arvzm8uW9++jsNm6SfR0MSwPS5T0kC0AxQsQtgCJdfTNNCNQCXAJjT460JwHfQIo7w11WL1jN1S7CiCF9LfdL3ICrZtOO9qD2QJBmtcPsbiouNmZTQxmRyjd74afzOT+rxVGLchWpYTAh/ukbEb/HxaQP8S8auolC5gtnR4dIvz83//fu3zJ1KWgCvdX5Rhx+mv3SWnS+kZWgwpAQBcOeGtE4AjfojJwAp/E7nOdFQ22sB3Jdaj5BEHWArVU6r5lzv5QfX2gEBC29+c+fJCLmufLrPPQKQ4TTluXw+E7n5SgLgfnn9mqe7TKUgkOt7Ho2HH+F1I/Pwwzz8VJ9OGYasaulNx+/+uzOTmx/pcVSu2uSRh+H0lz7pLQF8BCA1AC+wsUuj3AZQF37R+Q302gKQMGZfIeziLDP6UaW1Xr5fdkOE36/615vqTxMwInuBJMSKXK7LHT1AjjcZVJto3NW2JgiAZ8HP4HMi4MONEn5GRb4rjdQUOj/AwyxosGHTKphuI6MBxpUixiyCzKVl3Lx9duGW2bnPvmvHznf0o6tXU54xCOB5nw0gBd2WGgA0XXZGXZOXXUN9Spvs54g2APcE1rVAKYhGVG0iqbqu5fJDCMAv6C61S2FuVrcb1Xxn8hAvurn4CMD1sg2CoeFCXeC51Z5ZNiilsG2ugUotgH80RpHSGLI6oHHBt0qgtTI0w4ZhVbGOGWxubP3PTt127I/fQIavuaOOpIZUp3xiEMBzjg0gJZcADQQgs5EWW4cAxBLAWxY0rcUcxS18LRe5Wp3ap56vBAJBonS+C6H3/d1QlcB6my8X5Uzt6I3BdX9QQ+CZCz80zszD3W/xxJoTg49rBvzDj+iKwJsUWWojS2swqmXQ5SXopSIO7pqtbBkZ+c6hDTvedHrT9IoE41iJLolaRmRJm/7yxx0NwPRsADzIAeEagFy7y74OagDSFiBsAqG1Cqr913AZEBU19V4jAoGOra/DXSH3nwdxUjYOPNde5Mpz0PDnmOrdUnUp3Boh4Mq/xqPsEA182Sl+HOMft/Ib3CUXv6xTs5G3LCy99DLmNmxgN+2cubh746bPvnPr7ncPcnfGIIC/ZOcLWZQJJwBTGAE1ykMcOcEO6yg6nVcXeI8A/EB7Y8YLlCifKwJYiwMydCC5++4dG+TZi/xapGcQFvZ8OTp0HlKLIJ02hYW/ZlVBbRuGpgOUoWZZIllK12FyrzwMmEilUajZmDLMpXtm937zyakdxztWaUBeiEEAzzoEkG4gAK4BNO+z+GZ8dycgbBfA1fkaTP+KAK6rsRfBjuI38NUNBK7A+7RKwmd8bnRmDDaPqAsGkwC6bYNVLWgWRYboyBsmTE0D99Mzv2Pb1T1Tm78/Pz515n5CVo0rrtXSx9EJ4CsfY+dHuAaQiUwAspEOu7faBvQHD1EawGoZF4nWoxMHcAIQP3V7gfdd2hGc79wJh6bB0HWkdA1ZMFz8wY+wIZPHpsI41meGcHDHbmtDvnBp6/joN4/nyAOJNuQ6zCwyARz4/DNsYSiLCjFgIwWN8SCH0gbgRQDyFn3eXYAOBBBU+due/QwOpcjVd7pOpW8cw33GLxgVvskKJMv3hFxOGK7A8/1505YHdvj/xA0Tu8bGCgU6ObmutnFoxDq4bcfymGZeWJfJfHs98OH9KxRV93rhgsgj4PRXP8devnwB41PrYYu9Vb7FwiOfuEuAgFnHOQcgO7PddeBgFfzbPi7MruB6ZkYxcFztQYRgcrUN/pubf/xmZgoRrtyZaeqjjs87IoCpt4hxjc9MxDlwBqhzjLnOTa42Q0SYR6cenAfrm1yeF9R61bxtrPqGNpF719y5FDddySY486CIKe9OicSZHr3/MWhi97seik0cxXBxkoj7Bilzs+X/5jvn3kPZBtdko/HTMXwfXR7ccBZp3JsL/zeRVjYJGIeUEY61eMp7g1FCCGOU8OpRRnk6UXebECYzIajxxTv3p6Mx1BjRLEJRA0EVhJTXT4yXmcaWCWWL6Zr98y3poe+978DhVe9YY60SQmQC+CFjH1kA+A0AHuvE5v5Q+G/q/A9AVQMs/j8eI8EGLF1+r/K/NaACgDtML2aAJcXUa3XIqHpfTwhEJoDrqdGqLQoBhYBEQBGAGgkKgQFGQBHAAHe+arpCQBGAGgMKgQFGQBHAAHe+arpCQBGAGgMKgQFGQBHAAHe+arpC4P8BEDmVxuqsZqoAAAAASUVORK5CYII=;" parent="1" vertex="1">
          <mxGeometry x="-150" y="357.61999999999995" width="60" height="75.23" as="geometry" />
        </mxCell>
        <mxCell id="k-cX6Q8qo_v45ZxIV_hi-38" style="edgeStyle=orthogonalEdgeStyle;rounded=0;orthogonalLoop=1;jettySize=auto;html=1;exitX=0.5;exitY=1;exitDx=0;exitDy=0;" parent="1" source="k-cX6Q8qo_v45ZxIV_hi-33" target="k-cX6Q8qo_v45ZxIV_hi-33" edge="1">
          <mxGeometry relative="1" as="geometry" />
        </mxCell>
        <mxCell id="Q4-V6aB_OB0rIDVIlE6E-2" value="Streamsets&#xa;&#xa;分流，一个clt topic&#xa;变成多个事件topic" style="shape=image;verticalLabelPosition=bottom;labelBackgroundColor=default;verticalAlign=top;aspect=fixed;imageAspect=0;image=data:image/png,iVBORw0KGgoAAAANSUhEUgAAADkAAAA3CAYAAAC2EuL1AAAAAXNSR0IArs4c6QAAAARnQU1BAACxjwv8YQUAAAAJcEhZcwAADsMAAA7DAcdvqGQAAAQCSURBVGhD7Zi9ihRREIX3UUyNfQEDU59BIx/CaB/CZCMzQwM1lQ1F2MBUE0F3BUFBREQwaPnGPVKUdevW7e4ZZXYOHGZm53Z3fbd+eqePpiugA+S+6AC5L9oq5NuLr9Pxydl09/h0unnv6eaVz6dnF5crdqPVIQV2dOMk9bXbj3YGuyokQStT+OGT15vsRZAy67etnfRkL7sCPf/+c+O1tQokgT1+/+2PW4FmoCpdjn/w5svm/VpaBAnMnRcfp+vP3v3lW88/hMFSwhEkPYp0TmDX0mxIgongvIF9+enH5VG/1QJVNjl3dNxczYZsZbBln1X61EPaIXT/1ecN6BqaBUkAEUjPBG37FVDKVJBMYkmVskbZzoL0wY/Yl6Emr82iRLWskc1hSMrOBq1A7N96Zn1lgqollvbmMKSAfJCUF6VV7dUKqNqCcy7RMCQX7e0swFXYDFQbyusSDUGSKXa3IkB9abcMhB1IiI203+tvfl1Fw5D2Ir48VYJ2De+VkcysYQM5Z7Q5AmRNr8y9hssV2V2O7DPD+2pWW1aLaNNGQIchq8FGw6K3OZntpql6BN7TEGR1mGB2O5IyER2T2UpT11dMS2XIEUC5pdHy9cNOkDiqGK8SpMpMvcBnTVpdLHJP1az6srTH8L6nLiSB6GS+NPicZbiiXlZ9pqLrseGZupCcNNutVoCVHbYC1lcG57YCxn4v90q2C8lJsik298ItARtdbyTbXimk+i5TC7J3XFW9lsC9a6WQvg/5OcSveqttQVbg5KzSUAppe4KHw/pxq8cUyPeR7PupKgKuwuFKW6SQyqIFxDabZDu6OBmuiutkPdeyrTR+fLfUHTzRsxgLGV0cVyDnwmEAbZlGTxakLmT0BNw+I40CwNrhSHzXKvOKfb8TzyJID6jnoyiDjATcSL95++whPQybDRmVqn2ilmXDamnmKOlWZWhe2GHolUJyoIe0O9YaOvxdmps9jskmNLHpcaatrkjDkHaKtSDtWB/JIOfr3XoYen7aZ6WKhiD9jkWBYgvZ2gjrDAwoWkRZi5zdPlB38NiTVyHt9OuVauu/FbJjQVruZRF1Ie0thDKR6LUoaGwzmUG27qW+HFu2QzBTF1IjmpNWM+kHT7QGt7LoYSL7/6EzdSGRLR1b/1mWrFrDp9WLALR6sJo9qxIkEqjdwQzSZolsAuTXkPHW/Q8x+OTecMlUhkSA0i+6ICA+cNn2pcR6P21128hgl2oIErGrZBNQAsuyGZUjxzBwfAkDizkf3/GKWbt0A4YhJWWTAGyw3gRMBlknq5R5DwRmQ1jLK7blvlSzIa0I1pdhZNasGXxVq0AiZUmlqLJTZv6lVoP8n3WA3BcdIPdFVwBymn4B494GlI0N2H0AAAAASUVORK5CYII=;" vertex="1" parent="1">
          <mxGeometry x="90" y="363.59" width="68.83" height="66.41" as="geometry" />
        </mxCell>
        <mxCell id="Q4-V6aB_OB0rIDVIlE6E-3" value="" style="endArrow=classic;html=1;rounded=0;fontSize=16;strokeColor=#000000;strokeWidth=3;sketch=1;exitX=1;exitY=0.5;exitDx=0;exitDy=0;entryX=0;entryY=0.5;entryDx=0;entryDy=0;" edge="1" parent="1" source="k-cX6Q8qo_v45ZxIV_hi-1" target="Q4-V6aB_OB0rIDVIlE6E-2">
          <mxGeometry width="50" height="50" relative="1" as="geometry">
            <mxPoint x="70" y="394.2349999999999" as="sourcePoint" />
            <mxPoint x="140" y="395.53999999999996" as="targetPoint" />
          </mxGeometry>
        </mxCell>
        <mxCell id="Q4-V6aB_OB0rIDVIlE6E-4" value="Kafka" style="shape=image;imageAspect=0;aspect=fixed;verticalLabelPosition=bottom;verticalAlign=top;shadow=1;sketch=0;strokeColor=#FFFFFF;image=data:image/png,iVBORw0KGgoAAAANSUhEUgAAALAAAAEeCAMAAAAdCG9GAAAAkFBMVEX///8jHyAAAAAgHB0dGBkbFhcIAAARCgxMSkofGhsXEhMUDhDv7u5RTk8GAADq6eoMAAWqqan09PTZ2dmfnp7j4+OAf392dXWYl5czMDHr6+spJSY6NzizsrLR0dHAv79DQEFYVleKiYlvbW6+vb1kYmPJycl8enuvrq6Qjo9gXl6dnJxAPT4tKSqmpaY1MjMbeUWzAAARP0lEQVR4nOVdaXfiuhIcJC/YBmLMmmEJYCDATcj//3fPLEkIqpZa3sicV1/unXMiu5ClVqur1frzh4nBS394WLw3GpPpcjSe9bjtHoJklnpC+KEjGxmkE/rZP9v9waN5EVgvRSc8U/0BxxfP/eTR5FT0Q+EqZK8IYjH6Zd3cF57at7eIRNp6NMlvbIOOnu6F8vjRPD+RisBI94TO868YFz03YtHNEIj+o9n++dMV5tHwDbF5NN+VsKCbwV881sKNLPk2GuH7Ixnb82003MnjGNuOh2sfTx/Ft5uLb2aRl4/h28vJN7MV+4cQjnjLBWS8fQDfDXu9UCH9+vm+5B4QJ0Sj2gm79AKXecBnxMA7/oSoeysy9ggmgSfa45feYNDbHtMO6SM7b/XyTYgBIcXz7nZd2B4oyuKlVsLjGLLw3fX9Xw7a+LcF9S4fMRydAk6lHfbnxLxGvjPYa6KL/3oQOeCvwzo9zTZiIJTh8ImWi9YYUZ8T9Bd1sNjRDZ7QqPA0DUpGF9g0X7sUbMFPdOvzgQ6qqQqkvskrWMhFPWwzgO4ymdUEDIraXCDgV5oXrrGvjqK6AhWzjtpZM1MjsDa6dRm2ldpZjOG4Ce8byUn1XC+vVuYcZxFA36V6rme8KctAfDS3GqhjQjxVT/YE8GbOfAfNanKKwZs5Ub5nxbDVZdcAYU7sV3VAHkiY48f8KsJ/Gc2av4kwZ/b46hiuyYdvqG8mXeFvgKWONVdLgDoYo5W51Tzn0C8BI8VVlM/mVnt1Qfeq53pGX90yMz7uRFkfnWYNZE8A24doaGoERoS5UUloIQfeNBzb6i6lY/RJy4K6yBqje2hTV5eRgA6xyaYG6m+UjZrowvHYkJFuUKBgMscWlgV10co2PJptHVRv6oxVoTHRiEgrtUd8g/pGBNw9NE6aIZ5FKfzruFbdeQmjvoEAW6X5BH2OHOtyMu8OD9NICNF5b47Gaysbg6bdmcXznRvU2xDiuW835eb7qRBx5F6sTeCEvhDeaM3/0WAduHayu/+aTIPjQiib+xwdPNiHwlcDoDIUYsN1qWlVUWa//fmQjjaLrEtQWPaMmK8tzg8CWaULQtEgotL3UF22W9JuGIYk2fMfcOn22nTy0xlBJ+LFbRlpPjTYm6NXA93zrxcfnB1PEWXRT3l0tzG2MPcIBMfxG1JSnfn5zKDakJ+eEz8zokgLygKYwHPTkoVNjzgM4S+BWguDL0tTfAos+wOtWvfPtMqo+nowyw4NhM7K4AebTeWAmWL347EsH2KQpy8YuYcD32x17h7K6t+Wl2u0MUZF65lneK4ImJr4u/V4uDJm2PeNhT2OAp6LtbHqhRtITpSvy1iMrk9jqjDH/GuSw0kSeGqyZojPicCdgLcHTHgsr2oWGj2LkLV6nrGwncg/wAweHH2dhctczpQtwODchstzIu+STuTTk9JZcN/zRrmtoeisOBHvK0jnN/N9X2fzwdNT72XcFDjHpMGL/V7Q27+L+zjhyZ1PrdJ7/iM8iFC83jqRrWODmDlWeuXT8Sdj+d63jT5gGhIk/e+I/Re/i/8ogUKnbUn3T1cVTDO4HloRkiUc7lb5T09FCT+juRtOiS0rDNFYxZSKEoab25COgvXR30ev9RFegb2tdoOCw3b1EQZhWcNS0AYzz0IALEgYrcoGnxFlVVpEcgsSBvlagUmh6oM2H3URHqnf12xVwdLID4QVJPyuvFs6xkYg/4lv2AoSVsejz9lZKq08tkBVjDBKs2H0lapq8TPMihEG4hjHpA4V4x2yl45ihNcK4YCTer5T7ITDTokrRli1aiEnbKh+mID93oKEFdmd9W1VASNY1EP4qBBmCeiqxyRrIgyGBOeEitrDkp3ZUIywmu7IyopW56pzqIewOntkzGimLnUuM8SvpMdbEgbuOyf2pGaM8921ux4O7LJkQOoIJwsELOiM7NXsdbPh9L5tIGTa5YusquPFGMRAHmJ48IPxhxDoTKAMPREOmVsAoGGbc3ZzNEq6U6StfpOORLTi9DPwFI07SjDwpd4D+TsU5oC59MXS7HjlSQ1Sczr1GeN/R4J52NIVCyNlQNgQ3UNnf3WHcFakXg/giKW2uxKYJODpbBQMJtO2cO1ZBvddoXn7mgqW0UJOCx3jJFMOk0MOcSpuUOMiJZ9GMm41UKC4Q4yIrZdLu5VYAJxLzccivsvcg4Ftwkbsc+mg5we21V244WneGxj8K9yGcEkPBaST0L17/dPUJIQ7SiGbY0R8EjjlkmleKe2M4OdmuMsRlkPR/Frkk+0rWfcGrjTJJG/qwRXyRhIl4tIqHE+IxSZNl4HQ2H4U9WkFhZSpy3M/Gb/YWPKG44ah5tQ6Ft+TSXG+Xx7VKPfchXBQHHBacDxccTpM0WsUmgvgocCaLAsUariF9FrjcrsXB5PzVUZBkKLk7oXpWsUKS/Dg+vl+SbgAE67sjwiQrYTjPN0CK/Isy5lwGjjncZhj4LkS8NVI7VcEn4q7XnQn4X1c5rl1H0eoRpNpQGQbocnrbv731LTVW++bomPHWX77ZUSZBwodGAIZaidDtqcf35nBZNa0Wcii8MbHmMf8lhLnj2iTW6T4gIJPb8POmbtLCmI7GZljhFMc1MPUN23oGE3vjfViVz1/vmNtcKU4YJlL18FUmwv6jPEomuAobDIyjigpJlSYRpOVbcrJ60UGfykQ/+GWg422lx0hyT09VSvn9CONoajkWdtTMXEG5Ex5KIhuDnzR1Ail4ODfFSzh8ZnuY2KOf2O9yYz6Tzc4iDri494o/YSqq37yZYX6koCKZ8kG4wHz8eFcUsrzvM7pv2/DmSF0TJ6EYOSUnkHOWV40N0PS26533e7sZc7JgoMnpjJEbBGPWtdZ6qE91FOol+/Z4T+CsuOsk+e2oD6oudrIN9Bp0hMqKfmjCrqXz2lVJAscbj6BJdDaIiUii3ZlyHAXV1KST0Kjxj1D8gmU5tWo5AAuscz5xIJKgZgJVumSPBBW2LprwJnoRiU1itYwiZNTReAn8LSrYNb14Yvsj9cjnaiSgnx4ttgfr8dzoQIzkUJfK0elnghXECyd8AGrCfa10oEOmO9BBrShJ5GjY7A/Ub4hXpT1JUF65e8mjIrxVUG4WRZh7JOUT3iJx7B94Rt8rL98j1itCpezY97L+uUGvOIvaV9tivBJyub7Zw/niq2zRjlRFZQP3MGghH11UFSVtJIqo9hpsf+UoCppo5IaRU/leN7EPsBj1lywAX6Ty05yvIDYylZRkQbWHLYuBfmBgxtVVMAEKWUn2BxUImdCJXXByDouNmvHFHcw4+xDDhCEbSwSdb9ENUWVyMAYe5tERaoMmYd5oeZBfzLmzjvqwHJVleIowsE7r/2IiuBzD+IMXrr74ShNR6v+usfwlvBeIUPImuQaLZZRymI+bp/C734UhmEUxdn/v7+aCilRdiKb5QzGWu1YLLTDaj70VN06iIRo678NYZQyRNSx2C+86rVFICp+YfYhcGwgM+AdMdT8VHLanQ4eay1T0jRWlKFqOXRDfV2TSKT0bmVC65la5WrGKUERReA3b9/NGmpIZ8xqujgbyDHhcs0XvEQCqb6YTnj9gdildj70KD6/MOyrAZx1k18A5zO54/OX+tz8LfL70obi0i4W7eNNuO1pPRJW9Xqc20zh/2wyPDzilrPU9JvdzERON8P9fpU2fUoj1kAsP1+MSw3SL/ahF5ZwqpYFYeRnFt7JlX8Vdi7jcWlbu0tiF6r6tDUpTi522z5zjWA8KjubT4X/PjjkeYvE4eqPnFWOACjrHNiP/Us7D4WZW6XlBnbynFLQwoVaicG2sZGtE1uLTC8W8E0x2gWPDe/kPCRFcv8RsJSc9+6/W/jLz2eVNyca5HarOOP4a+/69Ma3uNL1Yy/z4jUeAlFr2pw0qscPZ5I4QKKw9UW42R933fHrVND+HyHFbXNU37t56E9fZR6avRwp3JscqmRGVhyl4g4DmTsVPlBvqTKWmfPD+y1Jb0l8GFLtzDvBoxA80eDjQ/fxJYZt6POK7Fp2t6Dq2rUWmrJlRN5LsoArOK3wMGvZ3cKPyYgyeUaC8BFOWCLGuuyLWUzmNyLo69pRp1B0EnwTLJV6xWTPP4wRioMh1AnzZ/VRfnQwSZ9kkOxNN6RfEImDOVkBlUXSZ6sgz8YobnXfyVDHFa4QnJPYYHsgTZoj+CqMGgbzoU8egjjFlDY88QbkvcSm3oKXV3BeNh8vhDo4so3oZPjCFWZB9of53aheFFcWmO/u0rz88dYm10TtLEbNEXRbDV+NuxOb7ERvcNskJ1VSLfLg8+8duPuodrk8OW/2UVMwQn5MvxBh1UiwVHO12o7F5YKFCKs6KUtpVX+nw5e2ChFWpX6Wblmkzk8xwg+opPR/1sOljeGgpjEM6q1xNMDHWYmcdlhdm+uywyDthZO3pZYdqWulQ76EedaBRK0O35coRli9M5XhrYFsTou85mKE1fqKDc/0dVHek0U+QzHCIAImTfcEgg62qZpWjDDaPRhukkOphjanLIoRRoPY4BKrd2rapeYXJPwfihnoNjyo2IXVzXcFCcMERNkhGW9QHMcqSasgYXwHF3mqtw3jTlbJf0UJY+ESl4uaO1DSsUuvLLQJPYE42xtP7qfeE5WbYJEF93c2Un5t3/IwDSVRSTE53nzqlw0lPrpcXzg5LkRHeYgbC2dlxXlKqUoyFpPRf7v17Lhq2msc9+ilAtcSO4spC4s0Y51uKUPfE5040ihlhtjhFYOlXh12xIRPWXuTnAnG2OEJycisHUjxxh4YhkioFpxM0BmvLKPDvlWmgJjNuUiOuvYRPG3C7ORcVX5OcMxbwEHDYsQBgY7ohHxZJIx7nGwFUV0VyVssck08s0WbWctegnm+Nk+JNPOGNY9E3mGGDLBmqAGj7km+DCvBqeOdgV3k5wLHPB7oy00NjJnuKjMr4QL/wzjfEl3FYT1jZsUEfvlDyflsSDTlMmZ6yS0qw+AOvsfogtzGPYO74BHOnM3IrLKGghOTLXSJHPNmyGvH6CmbBewLmhp3x4liz4t9XT1Nm63TUZJj2fFEylvu6dS1UIjm8Libdfcbn7632K4+wzYFFdBP5c/fjtwtGJUNH4n0xnz39h71PW3LEGxXb6eaflHoum4YZW68CNMd/2wxscQF4vX+Ux8J31NbSJxAb90fjjaHQ/o63lkpwsQdZw3/HXUbkWldQR0XGtjDJk9iwL+2uM6qOOD5enpDgc8pVnMmDQMRiDWLI/SSLEsaFQGyafrFCy2LldR7wkDn1AwrAVhnbMqIFQSobm9SIuDFc/YVYfIBxHBlaGoEoiMxt5BdUYAhHBudGdDFrCuEygC6D8687qgJUxWUT8JQrTDn5LeqYNdmidW+4shM6Aqh0qsRYahGgrUGAMI1mQnwZo4jowpq1ZxwV5Hz26ojKUdJmFzIl4UBClQ8kPA/18O/ewyrEf1fbiXKs8NVlGwF+OdWutJ8Cf6dv8Xwz3lr4N3SNTUCu5Ta/GEk/P3qHUdJe7oa9/n/3K75n4tL/HuRH4IB8Y13OLZWUTUiDFxa0X/+rdFLm/hwB8eHbSvLFUWD0OjuI/AxVUCjPiN8gVbjaK+Os5PGEWk0jhwB+GJYaPKEziqS56MLJr86uKYd/jdq0+lKQxEl1KnmeggDqHJvnA6uaavxEwnrrC3kW35dfRaqzpcoH/lKj3g1emn3wF6CgW/NS9xP2GcpUepjXXixzVur1UdDGDgWKXFSc/NybbCo1OPLmj0eArw72TLfs644hBFJyskf/qgpVslCr61PMQtEUMXVR0XQ24iYMBgyElPri0ZqQKs/FZ7iAzu+8Ie/Y64BDLppdK0I64ahfyoJ2x7/pqGL0JrP+qvhKH1djXfbWnfGP/A/hfYIwAMwkj0AAAAASUVORK5CYII=;fontSize=12;" vertex="1" parent="1">
          <mxGeometry x="220" y="356.78999999999996" width="49.23" height="80" as="geometry" />
        </mxCell>
        <mxCell id="Q4-V6aB_OB0rIDVIlE6E-5" value="" style="endArrow=classic;html=1;rounded=0;fontSize=16;strokeColor=#000000;strokeWidth=3;sketch=1;exitX=1;exitY=0.5;exitDx=0;exitDy=0;entryX=0;entryY=0.5;entryDx=0;entryDy=0;" edge="1" parent="1" source="Q4-V6aB_OB0rIDVIlE6E-2" target="Q4-V6aB_OB0rIDVIlE6E-4">
          <mxGeometry width="50" height="50" relative="1" as="geometry">
            <mxPoint x="190.00000000000003" y="391.64" as="sourcePoint" />
            <mxPoint x="260.77" y="389.99500000000023" as="targetPoint" />
          </mxGeometry>
        </mxCell>
        <mxCell id="Q4-V6aB_OB0rIDVIlE6E-8" value="" style="endArrow=classic;html=1;rounded=0;fontSize=16;strokeColor=#000000;strokeWidth=3;sketch=1;exitX=1;exitY=0.5;exitDx=0;exitDy=0;entryX=0;entryY=0.627;entryDx=0;entryDy=0;entryPerimeter=0;" edge="1" parent="1" source="Q4-V6aB_OB0rIDVIlE6E-4" target="k-cX6Q8qo_v45ZxIV_hi-33">
          <mxGeometry width="50" height="50" relative="1" as="geometry">
            <mxPoint x="279.99999999999994" y="394.39499999999987" as="sourcePoint" />
            <mxPoint x="341.17" y="394.39" as="targetPoint" />
          </mxGeometry>
        </mxCell>
      </root>
    </mxGraphModel>
  </diagram>
</mxfile>
